<svg width="24" height="24" viewBox="0 0 24 24" fill="none" xmlns="http://www.w3.org/2000/svg">
<path d="M5.76632 2.00085C4.18813 2.00085 2.90917 3.27982 2.90917 4.858V12.1307C2.90917 13.7089 4.18813 14.9879 5.76632 14.9879H8.10398V17.5853C8.10398 19.2944 9.51175 20.7022 11.2209 20.7022H18.4936C20.2027 20.7022 21.6105 19.2944 21.6105 17.5853V10.3125C21.6105 8.60344 20.2027 7.19566 18.4936 7.19566H15.8962V4.858C15.8962 3.27982 14.6172 2.00085 13.039 2.00085H5.76632ZM15.8962 9.27358H18.4936C19.0795 9.27358 19.5325 9.72659 19.5325 10.3125V17.5853C19.5325 18.1712 19.0795 18.6242 18.4936 18.6242H11.2209C10.6349 18.6242 10.1819 18.1712 10.1819 17.5853V14.9879H13.039C14.6172 14.9879 15.8962 13.7089 15.8962 12.1307V9.27358ZM3.41343 16.0126C3.13806 16.0167 2.87556 16.1299 2.6836 16.3273C2.49164 16.5248 2.38593 16.7904 2.38969 17.0658V18.1048C2.38969 19.8139 3.79747 21.2216 5.50658 21.2216V21.3941C5.50658 21.6393 5.65447 21.8607 5.88097 21.9542C5.95577 21.9854 6.03438 22.0009 6.1123 22.0009C6.27022 22.0009 6.42514 21.9397 6.54046 21.8233L7.75292 20.6108C7.98981 20.374 7.98981 19.9909 7.75292 19.7545L6.54046 18.542C6.36748 18.3685 6.10798 18.3166 5.88097 18.4112C5.65447 18.5052 5.50658 18.726 5.50658 18.9712V19.1437C4.92062 19.1437 4.46761 18.6907 4.46761 18.1048V17.0658C4.46951 16.9269 4.44354 16.789 4.39122 16.6603C4.3389 16.5316 4.26131 16.4147 4.16302 16.3165C4.06474 16.2183 3.94776 16.1408 3.81901 16.0886C3.69026 16.0364 3.55235 16.0106 3.41343 16.0126Z" fill="#167F71"/>
</svg>
