<svg width="24" height="24" viewBox="0 0 24 24" fill="none" xmlns="http://www.w3.org/2000/svg">
<path d="M3.50035 2.0011C3.16884 2.0011 2.8509 2.13279 2.61648 2.36721C2.38206 2.60163 2.25037 2.91957 2.25037 3.25109C2.25037 3.5826 2.38206 3.90054 2.61648 4.13496C2.8509 4.36938 3.16884 4.50107 3.50035 4.50107C3.83187 4.50107 4.14981 4.36938 4.38423 4.13496C4.61865 3.90054 4.75034 3.5826 4.75034 3.25109C4.75034 2.91957 4.61865 2.60163 4.38423 2.36721C4.14981 2.13279 3.83187 2.0011 3.50035 2.0011ZM18.7057 9.99902C18.5977 9.97002 18.4872 9.94602 18.3767 9.92552L13.2503 9.00103C13.2503 7.03455 13.2503 4.10058 13.2503 4.00108C13.2503 2.89659 12.3548 2.0011 11.2503 2.0011C10.1458 2.0011 9.2503 2.89659 9.2503 4.00108C9.2503 4.58907 9.2503 9.33303 9.2503 11.9805C9.1283 11.931 8.7283 11.7955 7.55931 11.44C6.79582 11.208 6.13033 11.106 5.56433 11.106C5.05834 11.106 4.62884 11.195 4.27135 11.3735C3.23536 11.889 2.72386 12.773 2.75136 14.001C2.75386 14.1085 2.81536 14.205 2.91136 14.2525C2.91136 14.2525 5.21734 15.381 6.42832 16.0195C7.18732 16.4195 8.4998 17.0654 10.2208 20.7244C10.6583 21.6539 11.7798 22.0889 12.8358 21.9864C15.6922 21.7089 16.0437 21.6784 17.9412 21.4859C19.1617 21.3619 19.6972 20.5129 20.0692 19.3969C20.4917 18.1289 21.2307 16.0515 21.6122 14.729C22.2072 12.668 20.8107 10.559 18.7057 9.99902ZM7.00032 2.0011C7.20732 2.0011 8.4448 2.0011 9.1608 2.0011C8.5983 2.58559 8.25031 3.37809 8.25031 4.25108V4.50107C8.00981 4.50107 7.24532 4.50107 7.00032 4.50107C6.30983 4.50107 5.75033 3.94158 5.75033 3.25109C5.75033 2.56059 6.30983 2.0011 7.00032 2.0011Z" fill="#005C73"/>
</svg>
