<svg width="24" height="24" viewBox="0 0 24 24" fill="none" xmlns="http://www.w3.org/2000/svg">
<path d="M21.49 7.80995V7.81133V16.1913C21.49 17.9119 20.9791 19.2251 20.0964 20.1078C19.2138 20.9904 17.9006 21.5013 16.18 21.5013H7.81C6.08945 21.5013 4.77634 20.9904 3.89377 20.1067C3.01114 19.223 2.5 17.9073 2.5 16.1813V7.81133C2.5 6.09076 3.01093 4.77751 3.89355 3.89488C4.77618 3.01226 6.08944 2.50133 7.81 2.50133H16.19C17.9107 2.50133 19.2237 3.0123 20.105 3.89466C20.9861 4.77692 21.4947 6.08971 21.49 7.80995ZM15.3435 13.2498L15.3452 13.2477L17.654 10.2691C17.6542 10.2689 17.6543 10.2687 17.6545 10.2685C18.0821 9.72057 17.9629 8.94492 17.4366 8.51435L17.4353 8.51327C16.894 8.0735 16.0926 8.17633 15.6734 8.72689L13.5129 11.5139L11.8792 10.2284L11.8784 10.2278C11.4046 9.85644 10.8011 9.68819 10.2067 9.76535C9.60194 9.84255 9.07489 10.1528 8.70647 10.6229L8.70646 10.6229L8.70388 10.6262L6.32388 13.7162L6.32387 13.7162L6.32145 13.7194C5.90914 14.2636 6.00289 15.0463 6.55455 15.4672C6.78538 15.6473 7.05386 15.7313 7.32 15.7313C7.69114 15.7313 8.05646 15.5627 8.30244 15.2512L8.30247 15.2512L8.30612 15.2464L10.5377 12.3492L12.1708 13.6343L12.1716 13.6349C12.6439 14.0051 13.2354 14.1735 13.8381 14.098C14.4486 14.0316 14.9765 13.718 15.3435 13.2498Z" fill="#005C73" stroke="#005C73"/>
</svg>
