<svg width="24" height="24" viewBox="0 0 24 24" fill="none" xmlns="http://www.w3.org/2000/svg">
<path d="M15.8095 12.4537H15.3095V12.9537V16.7632V17.2632H15.8095H19.6191H20.1191V16.7632C20.1191 14.3747 18.1981 12.4537 15.8095 12.4537ZM3.45239 4.14418C3.45239 3.2389 4.18996 2.50133 5.09525 2.50133H10.0714V7.47752C10.0714 8.93509 11.2567 10.1204 12.7143 10.1204H15.0071C11.6903 10.5168 9.11906 13.3396 9.11906 16.7632C9.11906 18.1697 9.55542 19.4732 10.2972 20.5489H5.09525C4.18996 20.5489 3.45239 19.8114 3.45239 18.9061V4.14418ZM16.6092 10.1204H17.6905V10.3421C17.341 10.2396 16.9797 10.1648 16.6092 10.1204ZM12.5 7.47752V3.62696L16.5649 7.6918H12.7143C12.5966 7.6918 12.5 7.59518 12.5 7.47752ZM11.0714 16.7632C11.0714 14.1549 13.2012 12.0251 15.8095 12.0251C18.4179 12.0251 20.5476 14.1549 20.5476 16.7632C20.5476 19.3715 18.4179 21.5013 15.8095 21.5013C13.2012 21.5013 11.0714 19.3715 11.0714 16.7632Z" fill="#005C73" stroke="#005C73"/>
</svg>
