<svg width="25" height="24" viewBox="0 0 25 24" fill="none" xmlns="http://www.w3.org/2000/svg">
<path d="M15.1538 2.00043H9.51281C8.18461 2.00043 6.98974 2.60043 6.18974 3.53889H18.4769C17.6769 2.60043 16.482 2.00043 15.1538 2.00043ZM13.1333 12.0927C12.7026 11.662 11.9641 11.662 11.5333 12.0927L8.2923 15.3338H16.3744L13.1333 12.0927ZM18.2308 4.56453H6.43589C5.1641 4.56453 4.1282 5.60043 4.1282 6.87222V15.3338H6.11794L10.4461 11.0056C10.9538 10.4979 11.6205 10.2209 12.3333 10.2209C13.0461 10.2209 13.7179 10.4979 14.2205 11.0056L18.5487 15.3338H20.5385V6.87222C20.5385 5.60043 19.5026 4.56453 18.2308 4.56453ZM16.4359 9.69274C15.5846 9.69274 14.8974 9.00556 14.8974 8.15427C14.8974 7.30299 15.5846 6.61581 16.4359 6.61581C17.2872 6.61581 17.9744 7.30299 17.9744 8.15427C17.9744 9.00556 17.2872 9.69274 16.4359 9.69274ZM11.5333 12.0927L8.2923 15.3338H16.3744L13.1333 12.0927C12.7026 11.662 11.9641 11.662 11.5333 12.0927ZM21.3077 16.3594H3.35897C2.93435 16.3594 2.58974 16.704 2.58974 17.1286V19.4363C2.58974 20.8522 3.73794 22.0004 5.15384 22.0004H19.5128C20.9287 22.0004 22.0769 20.8522 22.0769 19.4363V17.1286C22.0769 16.704 21.7323 16.3594 21.3077 16.3594Z" fill="#30373D"/>
</svg>
