<svg width="24" height="24" viewBox="0 0 24 24" fill="none" xmlns="http://www.w3.org/2000/svg">
<g clip-path="url(#clip0_77_161)">
<path d="M12 2C6.486 2 2 6.486 2 12C2 17.514 6.486 22 12 22C12.225 22 12.445 21.9818 12.666 21.9668C12.378 21.3528 12.1771 20.6911 12.0781 19.9961C12.0511 19.9961 12.027 20 12 20V4C16.411 4 20 7.589 20 12C20 12.027 19.9961 12.0511 19.9961 12.0781C20.6911 12.1771 21.3528 12.379 21.9668 12.668C21.9818 12.446 22 12.225 22 12C22 6.486 17.514 2 12 2ZM18.2324 14C18.1034 14 17.9955 14.0966 17.9805 14.2246L17.8633 15.2363C17.3793 15.4043 16.9425 15.6593 16.5625 15.9883L15.627 15.582C15.509 15.531 15.3706 15.5775 15.3066 15.6895L14.3691 17.3105C14.3051 17.4225 14.3345 17.5646 14.4375 17.6406L15.2441 18.2383C15.1971 18.4863 15.168 18.74 15.168 19C15.168 19.26 15.1961 19.5128 15.2441 19.7598L14.4395 20.3594C14.3365 20.4364 14.3061 20.5785 14.3711 20.6895L15.3066 22.3105C15.3706 22.4225 15.509 22.467 15.627 22.416L16.5625 22.0117C16.9415 22.3397 17.3793 22.5957 17.8633 22.7637L17.9805 23.7754C17.9945 23.9044 18.1034 24 18.2324 24H20.1035C20.2325 24 20.3405 23.9034 20.3555 23.7754L20.4727 22.7637C20.9567 22.5957 21.3934 22.3407 21.7734 22.0117L22.7109 22.418C22.8289 22.469 22.9653 22.4215 23.0293 22.3105L23.9668 20.6895C24.0308 20.5775 24.0014 20.4354 23.8984 20.3594L23.0918 19.7598C23.1398 19.5128 23.168 19.26 23.168 19C23.168 18.74 23.1398 18.4872 23.0918 18.2402L23.8965 17.6406C23.9995 17.5636 24.0298 17.4215 23.9648 17.3105L23.0293 15.6895C22.9653 15.5775 22.827 15.533 22.709 15.584L21.7734 15.9883C21.3944 15.6603 20.9567 15.4043 20.4727 15.2363L20.3555 14.2246C20.3415 14.0956 20.2325 14 20.1035 14H18.2324ZM19.168 17.25C20.134 17.25 20.918 18.033 20.918 19C20.918 19.966 20.134 20.75 19.168 20.75C18.202 20.75 17.418 19.966 17.418 19C17.418 18.033 18.202 17.25 19.168 17.25Z" fill="black"/>
</g>
<defs>
<clipPath id="clip0_77_161">
<rect width="24" height="24" fill="white"/>
</clipPath>
</defs>
</svg>
