<svg width="24" height="24" viewBox="0 0 24 24" fill="none" xmlns="http://www.w3.org/2000/svg">
<path d="M2.82772 2.50129L2.82772 2.50129C2.73951 2.50267 2.65545 2.539 2.59401 2.60231C2.53257 2.66562 2.49877 2.75073 2.50003 2.83895L2.50014 2.84612H2.50009V21.1684C2.50009 21.1685 2.50009 21.1685 2.50009 21.1685C2.50011 21.2568 2.53518 21.3414 2.5976 21.4038C2.66001 21.4662 2.74465 21.5013 2.83292 21.5013C2.83294 21.5013 2.83296 21.5013 2.83297 21.5013H21.1553H21.1624V21.5014C21.2065 21.502 21.2503 21.4939 21.2912 21.4774C21.3322 21.461 21.3694 21.4365 21.4008 21.4056L21.7519 21.7616L21.4008 21.4056C21.4322 21.3746 21.4572 21.3377 21.4742 21.297L21.9355 21.49L21.4742 21.297C21.4912 21.2563 21.5 21.2126 21.5 21.1685C21.5 21.1244 21.4912 21.0807 21.4742 21.04L21.9355 20.847L21.4742 21.04C21.4572 20.9993 21.4322 20.9624 21.4008 20.9314C21.3694 20.9005 21.3321 20.876 21.2912 20.8596C21.2503 20.8431 21.2065 20.835 21.1624 20.8356L21.1553 20.8357V20.8357H3.66576H3.16576V20.3357V11.9596V11.2523L3.83257 11.4882C3.86815 11.5008 3.90562 11.5073 3.94337 11.5073L2.82772 2.50129ZM2.82772 2.50129C2.87228 2.5006 2.91652 2.50885 2.95782 2.52557L3.1454 2.06209L2.95782 2.52557C2.99912 2.54228 3.03665 2.56712 3.06818 2.59861L3.42151 2.24483L3.06818 2.59861C3.09971 2.6301 3.1246 2.66759 3.14137 2.70888C3.15814 2.75016 3.16645 2.79439 3.16581 2.83895L3.16576 2.83895V2.84612V10.3904V11.1007L3.83441 10.8611C3.8697 10.8485 3.90688 10.8419 3.94437 10.8416M2.82772 2.50129L3.94437 10.8416M3.94437 10.8416C4.03228 10.8419 4.11654 10.8769 4.17872 10.9391C4.24114 11.0015 4.2762 11.0862 4.2762 11.1745C4.2762 11.2627 4.24114 11.3474 4.17872 11.4098C4.11633 11.4722 4.03173 11.5073 3.94351 11.5073L3.94437 10.8416ZM7.62736 8.73119C8.37446 6.01325 9.35675 4.47569 10.2786 3.61392C11.2581 2.69832 12.2036 2.51328 12.8269 2.51328C13.4503 2.51328 14.3958 2.69832 15.3752 3.61392C16.2971 4.47569 17.2794 6.01325 18.0265 8.73119H7.62736ZM6.48414 10.9391C6.54656 10.8767 6.63122 10.8416 6.71949 10.8416C6.80776 10.8416 6.89242 10.8767 6.95484 10.9391C7.01726 11.0015 7.05232 11.0862 7.05232 11.1745C7.05232 11.2627 7.01726 11.3474 6.95484 11.4098C6.89242 11.4722 6.80776 11.5073 6.71949 11.5073C6.63121 11.5073 6.54656 11.4722 6.48414 11.4098C6.42172 11.3474 6.38665 11.2627 6.38665 11.1745C6.38665 11.0862 6.42172 11.0015 6.48414 10.9391ZM9.26026 10.9391C9.32268 10.8767 9.40733 10.8416 9.49561 10.8416C9.58388 10.8416 9.66854 10.8767 9.73096 10.9391C9.79338 11.0015 9.82844 11.0862 9.82844 11.1745C9.82844 11.2627 9.79338 11.3474 9.73096 11.4098C9.66854 11.4722 9.58388 11.5073 9.49561 11.5073C9.40733 11.5073 9.32267 11.4722 9.26026 11.4098C9.19784 11.3474 9.16277 11.2627 9.16277 11.1745C9.16277 11.0862 9.19784 11.0015 9.26026 10.9391ZM12.0364 10.9391C12.0988 10.8767 12.1835 10.8416 12.2717 10.8416C12.36 10.8416 12.4447 10.8767 12.5071 10.9391C12.5695 11.0015 12.6046 11.0862 12.6046 11.1745C12.6046 11.2627 12.5695 11.3474 12.5071 11.4098C12.4447 11.4722 12.36 11.5073 12.2717 11.5073C12.1835 11.5073 12.0988 11.4722 12.0364 11.4098C11.974 11.3474 11.9389 11.2627 11.9389 11.1745C11.9389 11.0862 11.974 11.0015 12.0364 10.9391ZM14.8125 10.9391C14.8749 10.8767 14.9596 10.8416 15.0478 10.8416C15.1361 10.8416 15.2208 10.8767 15.2832 10.9391C15.3456 11.0015 15.3807 11.0862 15.3807 11.1745C15.3807 11.2627 15.3456 11.3474 15.2832 11.4098C15.2208 11.4722 15.1361 11.5073 15.0478 11.5073C14.9596 11.5073 14.8749 11.4722 14.8125 11.4098C14.7501 11.3474 14.715 11.2627 14.715 11.1745C14.715 11.0862 14.7501 11.0015 14.8125 10.9391ZM17.5886 10.9391C17.651 10.8767 17.7357 10.8416 17.824 10.8416C17.9122 10.8416 17.9969 10.8767 18.0593 10.9391C18.1217 11.0015 18.1568 11.0862 18.1568 11.1745C18.1568 11.2627 18.1217 11.3474 18.0593 11.4098C17.9969 11.4722 17.9122 11.5073 17.824 11.5073C17.7357 11.5073 17.651 11.4722 17.5886 11.4098C17.5262 11.3474 17.4911 11.2627 17.4911 11.1745C17.4911 11.0862 17.5262 11.0015 17.5886 10.9391ZM20.3647 10.9391C20.4272 10.8767 20.5118 10.8416 20.6001 10.8416C20.6884 10.8416 20.773 10.8767 20.8354 10.9391C20.8979 11.0015 20.9329 11.0862 20.9329 11.1745C20.9329 11.2627 20.8979 11.3474 20.8354 11.4098C20.773 11.4722 20.6884 11.5073 20.6001 11.5073C20.5118 11.5073 20.4271 11.4722 20.3647 11.4098C20.3023 11.3474 20.2672 11.2627 20.2672 11.1745C20.2672 11.0862 20.3023 11.0015 20.3647 10.9391ZM19.242 18.7252H6.41187C6.45267 16.8078 6.56655 15.1143 6.7323 13.6178H18.9216C19.0873 15.1143 19.2012 16.8078 19.242 18.7252Z" fill="#005C73" stroke="#005C73"/>
</svg>
