<svg width="24" height="24" viewBox="0 0 24 24" fill="none" xmlns="http://www.w3.org/2000/svg">
<path d="M20.8032 10.8667C20.3368 10.8667 19.825 11.1735 18.7368 11.7381C17.8355 12.2062 17.0018 12.6512 16.4723 12.9758C16.5182 13.1749 16.5455 13.3812 16.5455 13.594C16.5455 15.0981 15.3218 16.3212 13.8182 16.3212H10.4091C10.0327 16.3212 9.72728 16.0162 9.72728 15.6394C9.72728 15.2626 10.0327 14.9576 10.4091 14.9576H13.8182C14.57 14.9576 15.1818 14.3458 15.1818 13.594C15.1818 13.1862 14.9982 12.824 14.7136 12.5735C14.3905 12.3599 14.0068 12.2303 13.5909 12.2303H11.5941H11.3182C11.305 12.2303 11.2927 12.2272 11.2796 12.2262C10.0814 12.2076 9.50592 12.084 9.00001 11.9726C8.54001 11.8712 8.10547 11.7758 7.37592 11.7758C4.0432 11.7758 2.14047 15.8672 2.06138 16.0412C1.95865 16.2667 1.98638 16.5294 2.1332 16.7285L5.31502 21.044C5.44456 21.2199 5.64865 21.319 5.86229 21.319C5.90547 21.319 5.9482 21.3149 5.99138 21.3067C6.24865 21.2576 6.45683 21.0631 6.52365 20.8099C6.55956 20.6758 6.90683 19.5031 8.13638 19.5031C9.02365 19.5031 9.94137 19.6176 10.8291 19.7281C11.7332 19.8412 12.6686 19.9576 13.5909 19.9576C14.8468 19.9576 15.7509 18.9944 18.3636 16.3212C21.6827 12.9253 22 12.6285 22 11.9553C22 11.3726 21.4886 10.8667 20.8032 10.8667ZM17.9091 4.95534C17.9091 5.92352 17.3045 6.74625 16.4545 7.07807C16.1318 5.61443 14.9773 4.45989 13.5136 4.13716C13.8455 3.28716 14.6682 2.68262 15.6364 2.68262C16.8909 2.68262 17.9091 3.7008 17.9091 4.95534ZM12.6818 4.95534C11.8982 4.95534 11.1467 5.26662 10.5926 5.82071C10.0386 6.37479 9.72728 7.12629 9.72728 7.90989C9.72728 8.69348 10.0386 9.44498 10.5926 9.99906C11.1467 10.5531 11.8982 10.8644 12.6818 10.8644C13.4654 10.8644 14.2169 10.5531 14.771 9.99906C15.3251 9.44498 15.6364 8.69348 15.6364 7.90989C15.6364 7.12629 15.3251 6.37479 14.771 5.82071C14.2169 5.26662 13.4654 4.95534 12.6818 4.95534Z" fill="#005C73"/>
</svg>
