<svg width="25" height="24" viewBox="0 0 25 24" fill="none" xmlns="http://www.w3.org/2000/svg">
<path d="M22.5 19V22H2.5V19C2.5 18.45 2.95 18 3.5 18H21.5C22.05 18 22.5 18.45 22.5 19Z" fill="#005C73" stroke="#005C73" stroke-width="1.5" stroke-miterlimit="10" stroke-linecap="round" stroke-linejoin="round"/>
<path d="M7.5 11H5.5V18H7.5V11Z" fill="#005C73"/>
<path d="M11.5 11H9.5V18H11.5V11Z" fill="#005C73"/>
<path d="M15.5 11H13.5V18H15.5V11Z" fill="#005C73"/>
<path d="M19.5 11H17.5V18H19.5V11Z" fill="#005C73"/>
<path d="M23.5 22.75H1.5C1.09 22.75 0.75 22.41 0.75 22C0.75 21.59 1.09 21.25 1.5 21.25H23.5C23.91 21.25 24.25 21.59 24.25 22C24.25 22.41 23.91 22.75 23.5 22.75Z" fill="#005C73"/>
<path d="M21.87 5.74984L12.87 2.14984C12.67 2.06984 12.33 2.06984 12.13 2.14984L3.13 5.74984C2.78 5.88984 2.5 6.29984 2.5 6.67984V9.99984C2.5 10.5498 2.95 10.9998 3.5 10.9998H21.5C22.05 10.9998 22.5 10.5498 22.5 9.99984V6.67984C22.5 6.29984 22.22 5.88984 21.87 5.74984ZM12.5 8.49984C11.67 8.49984 11 7.82984 11 6.99984C11 6.16984 11.67 5.49984 12.5 5.49984C13.33 5.49984 14 6.16984 14 6.99984C14 7.82984 13.33 8.49984 12.5 8.49984Z" fill="#005C73"/>
</svg>
