<svg width="18" height="18" viewBox="0 0 18 18" fill="none" xmlns="http://www.w3.org/2000/svg">
<path d="M2.49436 9.505C2.21542 9.22607 2.21542 8.77393 2.49436 8.49499L9.28015 1.7092C9.55908 1.43027 10.0112 1.43027 10.2902 1.7092C10.4298 1.84884 10.4994 2.03135 10.4994 2.21421C10.4994 2.39706 10.4298 2.57957 10.2902 2.71921L4.00937 9L10.2902 15.2808C10.5691 15.5597 10.5691 16.0119 10.2902 16.2908C10.0112 16.5697 9.55908 16.5697 9.28015 16.2908L2.49436 9.505Z" fill="#757575"/>
<path d="M14.2139 15.4705C14.2139 15.8847 14.5497 16.2205 14.9639 16.2205C15.3781 16.2205 15.7139 15.8847 15.7139 15.4705V2.52946C15.7139 2.11524 15.3781 1.77946 14.9639 1.77946C14.5497 1.77946 14.2139 2.11524 14.2139 2.52946V15.4705Z" fill="#757575"/>
</svg>
