<svg width="24" height="24" viewBox="0 0 24 24" fill="none" xmlns="http://www.w3.org/2000/svg">
<path d="M3.70423 3.00053C3.66982 3.00143 3.63552 3.00483 3.6016 3.0107H2.7685C2.6744 3.00937 2.58097 3.02675 2.49365 3.06184C2.40633 3.09693 2.32685 3.14903 2.25984 3.2151C2.19282 3.28117 2.13961 3.35991 2.10329 3.44673C2.06697 3.53354 2.04826 3.62671 2.04826 3.72082C2.04826 3.81493 2.06697 3.9081 2.10329 3.99492C2.13961 4.08174 2.19282 4.16047 2.25984 4.22654C2.32685 4.29262 2.40633 4.34471 2.49365 4.3798C2.58097 4.41489 2.6744 4.43228 2.7685 4.43095H3.00521V13.4739C2.21294 13.5949 1.58496 14.2598 1.58496 15.0828V20.2904C1.58498 20.4787 1.6598 20.6593 1.79297 20.7925C1.92614 20.9256 2.10675 21.0005 2.29508 21.0005H15.5507C15.739 21.0005 15.9197 20.9256 16.0528 20.7925C16.186 20.6593 16.2608 20.4787 16.2608 20.2904V15.0828C16.2608 14.2598 15.6329 13.5949 14.8406 13.4739V4.43095H15.0773C15.1714 4.43228 15.2648 4.41489 15.3521 4.3798C15.4395 4.34471 15.519 4.29262 15.586 4.22654C15.653 4.16047 15.7062 4.08174 15.7425 3.99492C15.7788 3.9081 15.7975 3.81493 15.7975 3.72082C15.7975 3.62671 15.7788 3.53354 15.7425 3.44673C15.7062 3.35991 15.653 3.28117 15.586 3.2151C15.519 3.14903 15.4395 3.09693 15.3521 3.06184C15.2648 3.02675 15.1714 3.00937 15.0773 3.0107H14.247C14.1707 2.99818 14.093 2.99818 14.0167 3.0107H3.83184C3.78969 3.00348 3.74699 3.00007 3.70423 3.00053ZM4.42545 4.43095H13.4203V14.136C13.4204 14.3243 13.4952 14.5049 13.6284 14.6381C13.7615 14.7712 13.9421 14.8461 14.1305 14.8461H14.6039C14.7436 14.8461 14.8406 14.9431 14.8406 15.0828V19.5802H10.1064V16.7397C10.1064 16.4784 9.89435 16.2663 9.63302 16.2663H8.21278C7.95145 16.2663 7.73936 16.4784 7.73936 16.7397V19.5802H3.00521V15.0828C3.00521 14.9431 3.10224 14.8461 3.24192 14.8461H3.71533C3.90366 14.8461 4.08427 14.7712 4.21744 14.6381C4.35061 14.5049 4.42543 14.3243 4.42545 14.136V4.43095ZM6.79253 6.32461C6.53121 6.32461 6.31912 6.5367 6.31912 6.79802V7.74485C6.31912 8.00618 6.53121 8.21827 6.79253 8.21827H7.73936C8.00069 8.21827 8.21278 8.00618 8.21278 7.74485V6.79802C8.21278 6.5367 8.00069 6.32461 7.73936 6.32461H6.79253ZM10.1064 6.32461C9.84511 6.32461 9.63302 6.5367 9.63302 6.79802V7.74485C9.63302 8.00618 9.84511 8.21827 10.1064 8.21827H11.0533C11.3146 8.21827 11.5267 8.00618 11.5267 7.74485V6.79802C11.5267 6.5367 11.3146 6.32461 11.0533 6.32461H10.1064ZM15.7874 6.32461V7.74485H19.8115C20.4648 7.74485 20.995 8.27508 20.995 8.92839V19.5802H17.2077V20.5271C17.2077 20.6942 17.1738 20.8518 17.1208 21.0005H21.7051C22.0981 21.0005 22.4152 20.6833 22.4152 20.2904V8.92839C22.4152 7.49394 21.2459 6.32461 19.8115 6.32461H15.7874ZM6.79253 9.63852C6.53121 9.63852 6.31912 9.85061 6.31912 10.1119V11.0588C6.31912 11.3201 6.53121 11.5322 6.79253 11.5322H7.73936C8.00069 11.5322 8.21278 11.3201 8.21278 11.0588V10.1119C8.21278 9.85061 8.00069 9.63852 7.73936 9.63852H6.79253ZM10.1064 9.63852C9.84511 9.63852 9.63302 9.85061 9.63302 10.1119V11.0588C9.63302 11.3201 9.84511 11.5322 10.1064 11.5322H11.0533C11.3146 11.5322 11.5267 11.3201 11.5267 11.0588V10.1119C11.5267 9.85061 11.3146 9.63852 11.0533 9.63852H10.1064ZM18.1545 9.63852C17.8932 9.63852 17.6811 9.85061 17.6811 10.1119V11.0588C17.6811 11.3201 17.8932 11.5322 18.1545 11.5322H19.1013C19.3627 11.5322 19.5747 11.3201 19.5747 11.0588V10.1119C19.5747 9.85061 19.3627 9.63852 19.1013 9.63852H18.1545ZM6.79253 12.9524C6.53121 12.9524 6.31912 13.1645 6.31912 13.4258V14.3727C6.31912 14.634 6.53121 14.8461 6.79253 14.8461H7.73936C8.00069 14.8461 8.21278 14.634 8.21278 14.3727V13.4258C8.21278 13.1645 8.00069 12.9524 7.73936 12.9524H6.79253ZM10.1064 12.9524C9.84511 12.9524 9.63302 13.1645 9.63302 13.4258V14.3727C9.63302 14.634 9.84511 14.8461 10.1064 14.8461H11.0533C11.3146 14.8461 11.5267 14.634 11.5267 14.3727V13.4258C11.5267 13.1645 11.3146 12.9524 11.0533 12.9524H10.1064ZM18.1545 12.9524C17.8932 12.9524 17.6811 13.1645 17.6811 13.4258V14.3727C17.6811 14.634 17.8932 14.8461 18.1545 14.8461H19.1013C19.3627 14.8461 19.5747 14.634 19.5747 14.3727V13.4258C19.5747 13.1645 19.3627 12.9524 19.1013 12.9524H18.1545ZM4.89887 16.2663C4.63754 16.2663 4.42545 16.4784 4.42545 16.7397V17.6866C4.42545 17.9479 4.63754 18.16 4.89887 18.16H5.8457C6.10703 18.16 6.31912 17.9479 6.31912 17.6866V16.7397C6.31912 16.4784 6.10703 16.2663 5.8457 16.2663H4.89887ZM12.0001 16.2663C11.7388 16.2663 11.5267 16.4784 11.5267 16.7397V17.6866C11.5267 17.9479 11.7388 18.16 12.0001 18.16H12.9469C13.2083 18.16 13.4203 17.9479 13.4203 17.6866V16.7397C13.4203 16.4784 13.2083 16.2663 12.9469 16.2663H12.0001ZM18.1545 16.2663C17.8932 16.2663 17.6811 16.4784 17.6811 16.7397V17.6866C17.6811 17.9479 17.8932 18.16 18.1545 18.16H19.1013C19.3627 18.16 19.5747 17.9479 19.5747 17.6866V16.7397C19.5747 16.4784 19.3627 16.2663 19.1013 16.2663H18.1545Z" fill="#0961F5"/>
</svg>
