<svg width="25" height="24" viewBox="0 0 25 24" fill="none" xmlns="http://www.w3.org/2000/svg">
<path d="M12.3333 2.00043C11.936 2.00047 11.5506 2.1357 11.2403 2.38388C10.9301 2.63207 10.7135 2.97843 10.6262 3.36603C10.539 3.75363 10.5862 4.15939 10.7601 4.51659C10.9341 4.87379 11.2244 5.16117 11.5833 5.33148V7.25043C11.5819 7.34981 11.6003 7.44848 11.6373 7.54071C11.6744 7.63294 11.7294 7.71688 11.7992 7.78765C11.869 7.85843 11.9521 7.91463 12.0438 7.95299C12.1355 7.99135 12.2339 8.01111 12.3333 8.01111C12.4327 8.01111 12.5311 7.99135 12.6228 7.95299C12.7145 7.91463 12.7976 7.85843 12.8674 7.78765C12.9372 7.71688 12.9922 7.63294 13.0293 7.54071C13.0664 7.44848 13.0847 7.34981 13.0833 7.25043V5.32953C13.4411 5.15861 13.7303 4.87122 13.9035 4.51444C14.0766 4.15767 14.1234 3.75268 14.0363 3.36581C13.9491 2.97895 13.7331 2.63315 13.4237 2.38509C13.1143 2.13702 12.7299 2.00139 12.3333 2.00043ZM5.08331 5.50043C4.61918 5.50043 4.17406 5.6848 3.84588 6.01299C3.51769 6.34118 3.33331 6.7863 3.33331 7.25043C3.33331 7.71456 3.51769 8.15968 3.84588 8.48786C4.17406 8.81605 4.61918 9.00043 5.08331 9.00043C5.39881 8.99966 5.70822 8.91362 5.97882 8.7514L7.92218 10.0522C8.00389 10.1106 8.09651 10.1521 8.19454 10.174C8.29258 10.196 8.39402 10.198 8.49286 10.18C8.5917 10.162 8.68591 10.1244 8.76992 10.0693C8.85392 10.0142 8.926 9.94277 8.98187 9.85929C9.03775 9.7758 9.07629 9.68194 9.0952 9.58327C9.11411 9.4846 9.113 9.38314 9.09195 9.28491C9.0709 9.18668 9.03033 9.09368 8.97264 9.01143C8.91496 8.92918 8.84135 8.85935 8.75616 8.80609L6.81281 7.50629C6.84955 7.25769 6.83232 7.0041 6.76229 6.76276C6.69226 6.52142 6.57108 6.29799 6.40698 6.10767C6.24288 5.91735 6.03972 5.7646 5.81131 5.65982C5.5829 5.55503 5.33461 5.50067 5.08331 5.50043ZM19.5833 5.50043C19.332 5.50067 19.0837 5.55503 18.8553 5.65982C18.6269 5.7646 18.4237 5.91735 18.2596 6.10767C18.0955 6.29799 17.9744 6.52142 17.9043 6.76276C17.8343 7.0041 17.8171 7.25769 17.8538 7.50629L15.9105 8.80609C15.8253 8.85935 15.7517 8.92918 15.694 9.01143C15.6363 9.09368 15.5957 9.18668 15.5747 9.28491C15.5536 9.38314 15.5525 9.4846 15.5714 9.58327C15.5903 9.68194 15.6289 9.7758 15.6848 9.85929C15.7406 9.94277 15.8127 10.0142 15.8967 10.0693C15.9807 10.1244 16.0749 10.162 16.1738 10.18C16.2726 10.198 16.374 10.196 16.4721 10.174C16.5701 10.1521 16.6627 10.1106 16.7444 10.0522L18.6859 8.75336C18.9572 8.91522 19.2673 9.0006 19.5833 9.00043C20.0474 9.00043 20.4926 8.81605 20.8207 8.48786C21.1489 8.15968 21.3333 7.71456 21.3333 7.25043C21.3333 6.7863 21.1489 6.34118 20.8207 6.01299C20.4926 5.6848 20.0474 5.50043 19.5833 5.50043ZM12.3333 9.00043C10.6788 9.00043 9.33331 10.3459 9.33331 12.0004C9.33331 13.6549 10.6788 15.0004 12.3333 15.0004C13.9878 15.0004 15.3333 13.6549 15.3333 12.0004C15.3333 10.3459 13.9878 9.00043 12.3333 9.00043ZM16.7132 13.0834C16.5381 13.0813 16.3679 13.1405 16.2318 13.2507C16.0958 13.3609 16.0027 13.5152 15.9685 13.6869C15.9343 13.8586 15.9612 14.0369 16.0446 14.1908C16.128 14.3447 16.2626 14.4646 16.4251 14.5297L18.3362 15.3315C18.3571 15.7809 18.5502 16.2051 18.8755 16.5158C19.2009 16.8266 19.6334 17.0002 20.0833 17.0004C20.5474 17.0004 20.9926 16.8161 21.3207 16.4879C21.6489 16.1597 21.8333 15.7146 21.8333 15.2504C21.8333 14.7863 21.6489 14.3412 21.3207 14.013C20.9926 13.6848 20.5474 13.5004 20.0833 13.5004C19.6529 13.501 19.2377 13.6603 18.9173 13.9477L17.0052 13.1459C16.913 13.1057 16.8137 13.0845 16.7132 13.0834ZM7.93097 13.0844C7.83809 13.088 7.74669 13.1089 7.66144 13.1459L5.75031 13.9477C5.42962 13.66 5.0141 13.5008 4.58331 13.5004C4.11918 13.5004 3.67406 13.6848 3.34588 14.013C3.01769 14.3412 2.83331 14.7863 2.83331 15.2504C2.83331 15.7146 3.01769 16.1597 3.34588 16.4879C3.67406 16.8161 4.11918 17.0004 4.58331 17.0004C5.03323 17.0002 5.46575 16.8266 5.79108 16.5158C6.11641 16.2051 6.30954 15.7809 6.33038 15.3315L8.24152 14.5297C8.40555 14.4637 8.541 14.3419 8.62395 14.1857C8.70689 14.0296 8.73201 13.8492 8.69487 13.6763C8.65773 13.5034 8.56071 13.3492 8.42094 13.2409C8.28117 13.1326 8.10764 13.0772 7.93097 13.0844ZM9.58331 16.0004C8.61831 16.0004 7.83331 16.7854 7.83331 17.7504V19.0004C7.83331 20.6824 9.80981 22.0004 12.3333 22.0004C14.8568 22.0004 16.8333 20.6824 16.8333 19.0004V17.7504C16.8333 16.7854 16.0483 16.0004 15.0833 16.0004H9.58331Z" fill="#167F71"/>
</svg>
