<svg width="24" height="24" viewBox="0 0 24 24" fill="none" xmlns="http://www.w3.org/2000/svg">
<path d="M2.39118 18.4608L2.3912 18.4607L10.7176 4.03878C10.7176 4.03877 10.7176 4.03876 10.7177 4.03874C10.9923 3.56334 11.4918 3.32096 12 3.32096C12.5082 3.32096 13.0077 3.56334 13.2823 4.03875C13.2824 4.03876 13.2824 4.03877 13.2824 4.03878L21.6088 18.4607L21.6088 18.4608C22.1615 19.4176 21.4318 20.6817 20.3264 20.6817H3.67355C2.56823 20.6817 1.83845 19.4176 2.39118 18.4608ZM12.8002 8.16344L12.7995 8.16217C12.6344 7.88086 12.3331 7.7019 12 7.7019C11.6669 7.7019 11.3656 7.88086 11.2005 8.16216L11.1998 8.16344L6.20635 16.8154C6.20621 16.8156 6.20608 16.8158 6.20595 16.816C6.03951 17.1002 6.03964 17.4569 6.20635 17.7409C6.37131 18.0219 6.67154 18.2012 7.00488 18.2012H16.9951C17.3285 18.2012 17.6287 18.0219 17.7937 17.7409C17.9604 17.4569 17.9605 17.1001 17.794 16.816C17.7939 16.8158 17.7938 16.8156 17.7937 16.8154L12.8002 8.16344ZM15.3948 16.3551H8.60517L12 10.4712L15.3948 16.3551Z" fill="#005C73" stroke="#005C73" stroke-width="0.403853"/>
</svg>
