<svg width="24" height="24" viewBox="0 0 24 24" fill="none" xmlns="http://www.w3.org/2000/svg">
<path fill-rule="evenodd" clip-rule="evenodd" d="M17.417 2.00133C17.265 2.00133 17.1159 2.06023 17.0049 2.17223L15.8379 3.33922C15.6099 3.56672 15.6099 3.93594 15.8379 4.16344L17.0049 5.33043C17.1714 5.49693 17.4212 5.54691 17.6397 5.45641C17.8576 5.36591 18 5.15334 18 4.91734V4.50133H18.25C18.9491 4.50133 19.5 5.05221 19.5 5.75133V6.75133C19.4986 6.85071 19.517 6.94938 19.554 7.04161C19.5911 7.13384 19.6461 7.21778 19.7159 7.28855C19.7857 7.35933 19.8688 7.41553 19.9605 7.45389C20.0522 7.49225 20.1506 7.51201 20.25 7.51201C20.3494 7.51201 20.4478 7.49225 20.5395 7.45389C20.6312 7.41553 20.7143 7.35933 20.7841 7.28855C20.8539 7.21778 20.9089 7.13384 20.946 7.04161C20.983 6.94938 21.0014 6.85071 21 6.75133V5.75133C21 4.24144 19.7599 3.00133 18.25 3.00133H18V2.58531C18 2.34881 17.8576 2.13625 17.6397 2.04625C17.5676 2.01625 17.4915 2.00133 17.417 2.00133ZM9 2.50133C5.416 2.50133 2.5 5.41733 2.5 9.00133C2.5 12.0743 4.6461 14.6496 7.5166 15.3236C7.51479 15.2846 7.51211 15.2459 7.50943 15.2072C7.50472 15.139 7.5 15.0708 7.5 15.0013C7.5 13.9198 7.73351 12.8942 8.14551 11.9652C7.55701 11.8637 7.06947 11.5435 6.85547 11.223C6.66397 10.936 6.74082 10.5478 7.02832 10.3568C7.31232 10.1673 7.69615 10.2413 7.88965 10.5218C7.94615 10.5858 8.19153 10.7513 8.51953 10.7513H8.82324C9.08124 10.3768 9.37091 10.0255 9.69141 9.70445C9.60591 9.65895 9.51125 9.62633 9.40625 9.62633H8.71875C7.70225 9.62633 6.87598 8.81333 6.87598 7.81383C6.87598 6.92983 7.52348 6.19451 8.37598 6.03551V5.62633C8.37598 5.28133 8.65598 5.00133 9.00098 5.00133C9.34598 5.00133 9.62598 5.28133 9.62598 5.62633V6.02379C10.4565 6.12929 10.8588 6.72127 10.9053 6.79527C11.0883 7.08777 10.9995 7.4736 10.707 7.6566C10.415 7.8406 10.0287 7.75136 9.8457 7.45836L9.84469 7.45711C9.82944 7.43809 9.68038 7.2523 9.37598 7.2523H8.71973C8.39223 7.2523 8.12598 7.5048 8.12598 7.8148C8.12598 8.1248 8.39223 8.3773 8.71973 8.3773H9.40723C9.89973 8.3773 10.3453 8.57071 10.6768 8.88121C11.8988 8.01521 13.388 7.50133 15 7.50133C15.0695 7.50133 15.1377 7.50604 15.2058 7.51076C15.2446 7.51344 15.2833 7.51612 15.3223 7.51793C14.6483 4.64743 12.073 2.50133 9 2.50133ZM15 8.50133C11.416 8.50133 8.5 11.4173 8.5 15.0013C8.5 18.5853 11.416 21.5013 15 21.5013C18.584 21.5013 21.5 18.5853 21.5 15.0013C21.5 11.4173 18.584 8.50133 15 8.50133ZM3.73828 16.4906C3.53954 16.4937 3.35016 16.5756 3.21173 16.7182C3.0733 16.8608 2.99715 17.0526 3 17.2513V18.2513C3 19.7612 4.24011 21.0013 5.75 21.0013H6V21.4173C6 21.6538 6.14235 21.8664 6.36035 21.9564C6.43235 21.9864 6.50851 22.0013 6.58301 22.0013C6.73501 22.0013 6.88412 21.9424 6.99512 21.8304L8.16211 20.6634C8.39011 20.4359 8.39011 20.0667 8.16211 19.8392L6.99512 18.6722C6.82862 18.5057 6.57885 18.4557 6.36035 18.5462C6.14235 18.6367 6 18.8493 6 19.0853V19.5013H5.75C5.05089 19.5013 4.5 18.9504 4.5 18.2513V17.2513C4.50144 17.1509 4.48271 17.0513 4.44493 16.9583C4.40715 16.8653 4.35108 16.7808 4.28005 16.7098C4.20901 16.6389 4.12446 16.5829 4.0314 16.5453C3.93834 16.5076 3.83866 16.489 3.73828 16.4906ZM16.7746 15.9646C16.9249 15.6293 17 15.1356 17 14.4837C17 13.8935 16.9182 13.3959 16.7545 12.9908C16.5909 12.583 16.3575 12.2771 16.0543 12.0733C15.7539 11.8667 15.397 11.7634 14.9839 11.7634C14.5225 11.7634 14.1804 11.9485 13.9577 12.3187C13.7351 12.689 13.6237 13.2577 13.6237 14.025C13.6237 14.5105 13.7445 14.8647 13.9859 15.0873C14.23 15.31 14.5855 15.4213 15.0523 15.4213C15.2562 15.4213 15.5325 15.3985 15.8813 15.3529C15.9215 15.3449 15.9899 15.3355 16.0865 15.3248L16.0463 15.7473H13V16.9304H13.8008C14.7317 16.9304 15.4225 16.8526 15.8732 16.697C16.3266 16.5441 16.6271 16.3 16.7746 15.9646ZM15.9215 13.5018C16.0208 13.7057 16.0825 13.9713 16.1066 14.2986H15.173C14.9987 14.2986 14.8605 14.2839 14.7586 14.2543C14.6566 14.2248 14.5828 14.1779 14.5372 14.1135C14.4943 14.0491 14.4728 13.9619 14.4728 13.8519C14.4728 13.6158 14.4956 13.2979 14.5412 12.8982H14.7264C15.0376 12.8982 15.2897 12.9478 15.4829 13.0471C15.6787 13.1464 15.825 13.2979 15.9215 13.5018ZM15.8491 10.6004L15.0241 9.76742L14.1992 10.6004L15.0241 11.4254L15.8491 10.6004ZM14.8994 18.0209L14.2274 18.1336L14.2515 19.6387L14.9034 19.4857L14.8994 18.0209Z" fill="#005C73"/>
</svg>
