<svg width="23" height="22" viewBox="0 0 23 22" fill="none" xmlns="http://www.w3.org/2000/svg">
<path d="M11.4043 2.42285V3.43381" stroke="black" stroke-width="1.78723" stroke-linecap="round" stroke-linejoin="round"/>
<path d="M17.3017 4.86523L16.5869 5.57998" stroke="black" stroke-width="1.78723" stroke-linecap="round" stroke-linejoin="round"/>
<path d="M19.7444 10.7632H18.7334" stroke="black" stroke-width="1.78723" stroke-linecap="round" stroke-linejoin="round"/>
<path d="M5.50586 4.86523L6.22061 5.57998" stroke="black" stroke-width="1.78723" stroke-linecap="round" stroke-linejoin="round"/>
<path d="M3.06348 10.7632H4.07444" stroke="black" stroke-width="1.78723" stroke-linecap="round" stroke-linejoin="round"/>
<path d="M16.2058 10.7634C16.2058 7.77194 13.4711 5.41943 10.3655 6.07049C8.47295 6.46679 6.97875 8.04894 6.66737 9.95662C6.2822 12.3213 7.6288 14.422 9.63454 15.2187V17.5874C9.63454 18.1454 10.0875 18.5983 10.6455 18.5983H12.1619C12.72 18.5983 13.1729 18.1454 13.1729 17.5874V15.2187C14.9471 14.514 16.2058 12.7893 16.2058 10.7634Z" stroke="black" stroke-width="1.78723" stroke-linecap="round" stroke-linejoin="round"/>
<path d="M9.27832 15.0596H13.5304" stroke="black" stroke-width="1.78723" stroke-linecap="round" stroke-linejoin="round"/>
</svg>
