<svg width="25" height="24" viewBox="0 0 25 24" fill="none" xmlns="http://www.w3.org/2000/svg">
<path d="M15.5 1.43945C9.4375 1.43945 4.5 6.17945 4.5 11.9995C4.5 17.8195 9.4375 22.5595 15.5 22.5595C17.0645 22.5595 18.5547 22.2407 19.9004 21.6745C20.2656 21.5226 20.5 21.1776 20.5 20.7951C20.5 20.4145 20.2656 20.0676 19.9004 19.9157C16.7246 18.5826 14.5 15.5488 14.5 11.9995C14.5 8.45008 16.7246 5.41633 19.9004 4.0832C20.2656 3.93133 20.5 3.58445 20.5 3.20383C20.5 2.82133 20.2656 2.47633 19.9004 2.32445C18.5547 1.7582 17.0645 1.43945 15.5 1.43945ZM15.5 3.35945C16.0469 3.35945 16.5742 3.4307 17.0938 3.5207C14.3398 5.4407 12.5 8.48945 12.5 11.9995C12.5 15.5095 14.3398 18.5582 17.0938 20.4782C16.5742 20.5682 16.0469 20.6395 15.5 20.6395C10.5176 20.6395 6.5 16.7826 6.5 11.9995C6.5 7.21633 10.5176 3.35945 15.5 3.35945Z" fill="black"/>
</svg>
