<svg width="24" height="24" viewBox="0 0 24 24" fill="none" xmlns="http://www.w3.org/2000/svg">
<path d="M12.1098 3.4375C9.92678 3.4375 8.15745 5.20683 8.15745 7.38983C8.15745 9.57284 9.92678 11.3422 12.1098 11.3422C14.2928 11.3422 16.0621 9.57284 16.0621 7.38983C16.0621 5.20683 14.2928 3.4375 12.1098 3.4375ZM11.5609 5.63324H12.7685C13.0109 5.63324 13.2077 5.82998 13.2077 6.07239C13.2077 6.3148 13.0109 6.51154 12.7685 6.51154H11.9211L11.8773 6.73111H12.2196C12.8858 6.73111 13.4272 7.27258 13.4272 7.93877C13.4272 8.62735 12.8607 9.14643 12.1098 9.14643C11.4471 9.14643 11.0331 8.88251 10.9879 8.85309C10.7863 8.71871 10.7317 8.44568 10.8661 8.24411C11 8.04386 11.2697 7.98846 11.4708 8.11889C11.4879 8.12943 11.7211 8.26813 12.1098 8.26813C12.321 8.26813 12.5489 8.16493 12.5489 7.93877C12.5489 7.75696 12.4014 7.60941 12.2196 7.60941H11.3413C11.21 7.60941 11.0851 7.5509 11.0016 7.44902C10.9182 7.34757 10.8848 7.2136 10.9107 7.08449L11.1303 5.98662C11.1711 5.7811 11.3514 5.63324 11.5609 5.63324ZM2.6681 6.95068C2.58082 6.94945 2.49415 6.96558 2.41315 6.99813C2.33215 7.03068 2.25842 7.079 2.19626 7.14029C2.1341 7.20158 2.08473 7.27462 2.05104 7.35515C2.01735 7.43568 2 7.52211 2 7.60941C2 7.6967 2.01735 7.78313 2.05104 7.86366C2.08473 7.9442 2.1341 8.01723 2.19626 8.07852C2.25842 8.13981 2.33215 8.18814 2.41315 8.22069C2.49415 8.25324 2.58082 8.26936 2.6681 8.26813H3.98555C4.11512 8.26813 4.20512 8.35813 4.20512 8.4877V18.149C4.20512 19.4751 5.29431 20.5643 6.62044 20.5643H17.5991C18.9253 20.5643 20.0145 19.4751 20.0145 18.149V8.4877C20.0145 8.35813 20.1045 8.26813 20.234 8.26813H21.3319C21.4192 8.26936 21.5058 8.25324 21.5869 8.22069C21.6679 8.18814 21.7416 8.13981 21.8037 8.07852C21.8659 8.01723 21.9153 7.9442 21.949 7.86366C21.9826 7.78313 22 7.6967 22 7.60941C22 7.52211 21.9826 7.43568 21.949 7.35515C21.9153 7.27462 21.8659 7.20158 21.8037 7.14029C21.7416 7.079 21.6679 7.03068 21.5869 6.99813C21.5058 6.96558 21.4192 6.94945 21.3319 6.95068H20.234C19.3931 6.95068 18.697 7.64675 18.697 8.4877V18.149C18.697 18.763 18.2132 19.2468 17.5991 19.2468H6.62044C6.00641 19.2468 5.52257 18.763 5.52257 18.149V8.4877C5.52257 7.64675 4.8265 6.95068 3.98555 6.95068H2.6681ZM9.65159 13.5293C9.52572 13.5359 9.40438 13.5784 9.30195 13.6519C9.19953 13.7253 9.12032 13.8266 9.07373 13.9437C9.02714 14.0608 9.01512 14.1888 9.0391 14.3126C9.06308 14.4363 9.12205 14.5506 9.20901 14.6418L11.6243 17.2767C11.686 17.3439 11.7611 17.3977 11.8446 17.4344C11.9282 17.4711 12.0185 17.4901 12.1098 17.4901C12.2011 17.4901 12.2914 17.4711 12.3749 17.4344C12.4585 17.3977 12.5335 17.3439 12.5953 17.2767L15.0106 14.6418C15.0979 14.5493 15.1565 14.4335 15.1795 14.3084C15.2024 14.1833 15.1886 14.0543 15.1398 13.9368C15.0911 13.8194 15.0093 13.7186 14.9045 13.6466C14.7997 13.5746 14.6762 13.5345 14.5491 13.531C14.4533 13.5285 14.358 13.5469 14.27 13.585C14.182 13.6231 14.1034 13.6799 14.0396 13.7515L12.1098 15.8572L10.1799 13.7515C10.1143 13.677 10.0327 13.6184 9.94119 13.5799C9.8497 13.5415 9.7507 13.5242 9.65159 13.5293Z" fill="#005C73"/>
</svg>
