<svg width="24" height="24" viewBox="0 0 24 24" fill="none" xmlns="http://www.w3.org/2000/svg">
<path d="M17.417 2.00098C17.265 2.00098 17.1159 2.05987 17.0049 2.17188L15.8379 3.33887C15.6099 3.56637 15.6099 3.93559 15.8379 4.16309L17.0049 5.33008C17.1714 5.49658 17.4211 5.54655 17.6396 5.45605C17.8576 5.36555 18 5.15299 18 4.91699V4.50098H18.25C18.9491 4.50098 19.5 5.05186 19.5 5.75098V6.75098C19.4986 6.85036 19.517 6.94903 19.554 7.04126C19.5911 7.13348 19.6461 7.21743 19.7159 7.2882C19.7857 7.35898 19.8688 7.41518 19.9605 7.45354C20.0522 7.4919 20.1506 7.51166 20.25 7.51166C20.3494 7.51166 20.4478 7.4919 20.5395 7.45354C20.6312 7.41518 20.7143 7.35898 20.7841 7.2882C20.8539 7.21743 20.9089 7.13348 20.946 7.04126C20.983 6.94903 21.0014 6.85036 21 6.75098V5.75098C21 4.24109 19.7599 3.00098 18.25 3.00098H18V2.58496C18 2.34846 17.8576 2.1359 17.6396 2.0459C17.5676 2.0159 17.4915 2.00098 17.417 2.00098ZM9 2.50098C5.416 2.50098 2.5 5.41698 2.5 9.00098C2.5 12.074 4.6461 14.6492 7.5166 15.3232C7.5116 15.2157 7.5 15.11 7.5 15.001C7.5 13.9195 7.73351 12.8938 8.14551 11.9648C7.55701 11.8633 7.06947 11.5432 6.85547 11.2227C6.66397 10.9357 6.74082 10.5474 7.02832 10.3564C7.31232 10.1669 7.69615 10.241 7.88965 10.5215C7.94615 10.5855 8.19153 10.751 8.51953 10.751H8.82324C9.08124 10.3765 9.37091 10.0251 9.69141 9.7041C9.60591 9.6586 9.51125 9.62598 9.40625 9.62598H8.71875C7.70225 9.62598 6.87598 8.81298 6.87598 7.81348C6.87598 6.92948 7.52348 6.19416 8.37598 6.03516V5.62598C8.37598 5.28098 8.65598 5.00098 9.00098 5.00098C9.34598 5.00098 9.62598 5.28098 9.62598 5.62598V6.02344C10.4565 6.12894 10.8588 6.72092 10.9053 6.79492C11.0883 7.08742 10.9995 7.47325 10.707 7.65625C10.415 7.84025 10.0287 7.75101 9.8457 7.45801C9.8382 7.44901 9.68948 7.25195 9.37598 7.25195H8.71973C8.39223 7.25195 8.12598 7.50445 8.12598 7.81445C8.12598 8.12445 8.39223 8.37695 8.71973 8.37695H9.40723C9.89973 8.37695 10.3453 8.57036 10.6768 8.88086C11.8988 8.01486 13.388 7.50098 15 7.50098C15.109 7.50098 15.2148 7.51258 15.3223 7.51758C14.6483 4.64708 12.073 2.50098 9 2.50098ZM15 8.50098C11.416 8.50098 8.5 11.417 8.5 15.001C8.5 18.585 11.416 21.501 15 21.501C18.584 21.501 21.5 18.585 21.5 15.001C21.5 11.417 18.584 8.50098 15 8.50098ZM15 11.001C15.345 11.001 15.625 11.281 15.625 11.626V12.0332C16.441 12.1817 17.0625 12.8906 17.0625 13.7441C17.0625 14.0101 16.9976 14.257 16.8896 14.4795C17.4361 14.822 17.8125 15.4312 17.8125 16.1162C17.8125 17.1552 16.961 18.001 15.915 18.001H15.625V18.376C15.625 18.721 15.345 19.001 15 19.001C14.655 19.001 14.375 18.721 14.375 18.376V18.001H13.5C13.155 18.001 12.875 17.721 12.875 17.376V14.8184V14.8135V12.626C12.875 12.281 13.155 12.001 13.5 12.001H14.375V11.626C14.375 11.281 14.655 11.001 15 11.001ZM14.125 13.251V14.1885H15.3398C15.5793 14.176 15.8125 14.0262 15.8125 13.7432C15.8125 13.4717 15.5861 13.251 15.3086 13.251H14.125ZM15.915 15.4385L14.125 15.4434V16.751H15.915C16.272 16.751 16.5625 16.4667 16.5625 16.1162C16.5625 15.7557 16.2595 15.4385 15.915 15.4385ZM3.73828 16.4902C3.53954 16.4933 3.35016 16.5752 3.21173 16.7178C3.0733 16.8605 2.99715 17.0522 3 17.251V18.251C3 19.7609 4.24011 21.001 5.75 21.001H6V21.417C6 21.6535 6.14235 21.8661 6.36035 21.9561C6.43235 21.9861 6.50851 22.001 6.58301 22.001C6.73501 22.001 6.88412 21.9421 6.99512 21.8301L8.16211 20.6631C8.39011 20.4356 8.39011 20.0664 8.16211 19.8389L6.99512 18.6719C6.82862 18.5054 6.57885 18.4554 6.36035 18.5459C6.14235 18.6364 6 18.849 6 19.085V19.501H5.75C5.05089 19.501 4.5 18.9501 4.5 18.251V17.251C4.50144 17.1506 4.48271 17.0509 4.44493 16.9579C4.40715 16.8649 4.35108 16.7804 4.28005 16.7095C4.20901 16.6386 4.12446 16.5826 4.0314 16.5449C3.93834 16.5073 3.83866 16.4887 3.73828 16.4902Z" fill="#19A3FF"/>
</svg>
