<svg width="29" height="29" viewBox="0 0 29 29" fill="none" xmlns="http://www.w3.org/2000/svg">
<path d="M8.66666 10.4165L12.099 12.4458C14.1001 13.6289 14.8999 13.6289 16.901 12.4458L20.3333 10.4165" stroke="#616161" stroke-width="1.75" stroke-linecap="round" stroke-linejoin="round"/>
<path d="M2.85173 16.2217C2.92801 19.7982 2.96613 21.5864 4.28578 22.911C5.60544 24.2358 7.44206 24.2819 11.1153 24.3742C13.3792 24.4311 15.6208 24.4311 17.8847 24.3742C21.558 24.2819 23.3946 24.2358 24.7142 22.911C26.0339 21.5864 26.0721 19.7982 26.1482 16.2217C26.1729 15.0718 26.1729 13.9285 26.1482 12.7787C26.0721 9.20217 26.0339 7.41394 24.7142 6.08927C23.3946 4.7646 21.558 4.71846 17.8847 4.62616C15.6208 4.56928 13.3792 4.56928 11.1153 4.62615C7.44206 4.71843 5.60544 4.76458 4.28578 6.08926C2.96613 7.41392 2.92799 9.20216 2.85173 12.7785C2.82721 13.9285 2.82721 15.0718 2.85173 16.2217Z" stroke="#616161" stroke-width="1.75" stroke-linejoin="round"/>
</svg>
