<svg width="218" height="44" viewBox="0 0 218 44" fill="none" xmlns="http://www.w3.org/2000/svg">
<g clip-path="url(#clip0_496_3921)">
<path d="M34.1287 5.30383H11.8849C10.3611 5.30383 8.8997 5.90917 7.82219 6.98668C6.74468 8.06419 6.13934 9.52561 6.13934 11.0494L6.13934 32.5475L18.9569 21.0155L12.2418 12.7735H18.6994L23.211 18.2776L28.8146 14.1939L28.8359 14.1726L28.8927 14.1317L30.3415 13.0025L30.0859 13.2049L30.3131 13.0274L10.1076 31.1537L7.8474 33.1743L6.28671 34.584C6.57892 35.85 7.29148 36.9797 8.30816 37.7887C9.32484 38.5977 10.5857 39.0384 11.8849 39.0388H34.1287C34.8832 39.0388 35.6304 38.8902 36.3275 38.6015C37.0246 38.3127 37.658 37.8895 38.1915 37.356C38.725 36.8224 39.1482 36.189 39.437 35.492C39.7257 34.7949 39.8743 34.0477 39.8743 33.2932V11.0494C39.8743 10.2949 39.7257 9.54778 39.437 8.85069C39.1482 8.1536 38.725 7.52021 38.1915 6.98668C37.658 6.45315 37.0246 6.02993 36.3275 5.74119C35.6304 5.45245 34.8832 5.30383 34.1287 5.30383ZM28.8661 32.9665L24.358 27.5263L21.0325 32.9665H18.6994L30.3042 18.8884L27.4847 23.471L35.3876 32.9665H28.8661ZM17.4654 32.9665H9.77029L36.966 8.79096L17.4654 32.9665Z" fill="#005C73"/>
<path d="M53.7102 13.7059V20.1272H62.333V24.2001H53.7102V30.9883H63.4338V35.1713H48.5732V9.52295H63.4338V13.7059H53.7102ZM77.8624 35.1713L73.6794 28.8601L69.9735 35.1713H64.4695L71.1109 24.9706L64.3961 14.8434H70.1936L74.3399 21.1179L78.0826 14.8434H83.5865L76.9084 24.9706L83.6599 35.1713H77.8624ZM83.6613 24.934C83.6613 22.8792 84.065 21.0567 84.8722 19.4667C85.7039 17.8767 86.8169 16.6536 88.2112 15.7974C89.63 14.9413 91.2078 14.5132 92.9446 14.5132C94.4613 14.5132 95.7822 14.819 96.9075 15.4305C98.0572 16.0421 98.9745 16.8126 99.6594 17.7422V14.8434H104.833V35.1713H99.6594V32.1991C98.9989 33.1532 98.0816 33.9482 96.9075 34.5842C95.7577 35.1957 94.4246 35.5015 92.9079 35.5015C91.1956 35.5015 89.63 35.0612 88.2112 34.1806C86.8169 33.2999 85.7039 32.0646 84.8722 30.4746C84.065 28.8601 83.6613 27.0132 83.6613 24.934ZM99.6594 25.0073C99.6594 23.7598 99.4148 22.6957 98.9256 21.8151C98.4363 20.91 97.7759 20.225 96.9441 19.7603C96.1124 19.271 95.2196 19.0264 94.2656 19.0264C93.3116 19.0264 92.4309 19.2588 91.6237 19.7236C90.8164 20.1883 90.156 20.8733 89.6423 21.7784C89.153 22.659 88.9084 23.7109 88.9084 24.934C88.9084 26.1571 89.153 27.2334 89.6423 28.1629C90.156 29.068 90.8164 29.7652 91.6237 30.2544C92.4554 30.7437 93.336 30.9883 94.2656 30.9883C95.2196 30.9883 96.1124 30.7559 96.9441 30.2911C97.7759 29.8019 98.4363 29.1169 98.9256 28.2363C99.4148 27.3312 99.6594 26.2549 99.6594 25.0073ZM107.062 25.0073C107.062 22.9036 107.49 21.069 108.346 19.5034C109.202 17.9134 110.388 16.6903 111.905 15.8341C113.422 14.9535 115.159 14.5132 117.115 14.5132C119.635 14.5132 121.714 15.1492 123.353 16.4212C125.017 17.6688 126.13 19.43 126.692 21.705H121.152C120.858 20.8244 120.357 20.1394 119.647 19.6502C118.962 19.1365 118.106 18.8796 117.079 18.8796C115.611 18.8796 114.449 19.4178 113.593 20.4941C112.737 21.546 112.309 23.0504 112.309 25.0073C112.309 26.9398 112.737 28.4442 113.593 29.5206C114.449 30.5724 115.611 31.0984 117.079 31.0984C119.158 31.0984 120.516 30.1688 121.152 28.3097H126.692C126.13 30.5113 125.017 32.2603 123.353 33.5568C121.69 34.8533 119.611 35.5015 117.115 35.5015C115.159 35.5015 113.422 35.0734 111.905 34.2173C110.388 33.3366 109.202 32.1135 108.346 30.548C107.49 28.9579 107.062 27.1111 107.062 25.0073ZM134.969 19.0631V28.8968C134.969 29.5817 135.128 30.0832 135.446 30.4012C135.788 30.6947 136.351 30.8415 137.134 30.8415H139.519V35.1713H136.29C131.96 35.1713 129.795 33.0675 129.795 28.8601V19.0631H127.373V14.8434H129.795V9.8165H134.969V14.8434H139.519V19.0631H134.969Z" fill="#005C73"/>
<rect width="68.3079" height="39.3079" transform="translate(146.849 2.51733)" fill="#005C73"/>
<path d="M174.245 17.9504C174.245 19.1681 173.951 20.3096 173.364 21.3751C172.799 22.4405 171.897 23.2994 170.657 23.9517C169.439 24.6041 167.896 24.9302 166.026 24.9302H162.21V33.6713H157.643V10.9054H166.026C167.787 10.9054 169.287 11.2098 170.527 11.8186C171.766 12.4275 172.69 13.2646 173.299 14.33C173.93 15.3955 174.245 16.6023 174.245 17.9504ZM165.83 21.2446C167.091 21.2446 168.026 20.9619 168.635 20.3966C169.244 19.8095 169.548 18.9941 169.548 17.9504C169.548 15.7325 168.309 14.6236 165.83 14.6236H162.21V21.2446H165.83ZM180.748 18.407C181.336 17.4503 182.097 16.7001 183.032 16.1565C183.988 15.6129 185.075 15.3411 186.293 15.3411V20.1357H185.086C183.651 20.1357 182.564 20.4727 181.825 21.1468C181.107 21.8208 180.748 22.995 180.748 24.6693V33.6713H176.182V15.6021H180.748V18.407ZM196.088 33.9648C194.348 33.9648 192.783 33.5843 191.391 32.8233C189.999 32.0405 188.901 30.9424 188.097 29.529C187.314 28.1157 186.923 26.4849 186.923 24.6367C186.923 22.7884 187.325 21.1576 188.129 19.7443C188.956 18.3309 190.075 17.2437 191.489 16.4827C192.902 15.6999 194.479 15.3085 196.218 15.3085C197.958 15.3085 199.534 15.6999 200.947 16.4827C202.361 17.2437 203.47 18.3309 204.274 19.7443C205.1 21.1576 205.514 22.7884 205.514 24.6367C205.514 26.4849 205.09 28.1157 204.242 29.529C203.415 30.9424 202.285 32.0405 200.85 32.8233C199.436 33.5843 197.849 33.9648 196.088 33.9648ZM196.088 29.9857C196.914 29.9857 197.686 29.79 198.403 29.3986C199.143 28.9854 199.73 28.3766 200.165 27.5721C200.599 26.7676 200.817 25.7891 200.817 24.6367C200.817 22.9189 200.36 21.6034 199.447 20.6901C198.556 19.7552 197.457 19.2877 196.153 19.2877C194.848 19.2877 193.75 19.7552 192.859 20.6901C191.989 21.6034 191.554 22.9189 191.554 24.6367C191.554 26.3544 191.978 27.6808 192.826 28.6158C193.696 29.529 194.783 29.9857 196.088 29.9857Z" fill="white"/>
</g>
<rect x="1.84533" y="1.51946" width="214.309" height="41.3037" rx="8.88001" stroke="#005C73" stroke-width="1.99575"/>
<defs>
<clipPath id="clip0_496_3921">
<rect x="2.8432" y="2.51733" width="212.314" height="39.3079" rx="7.88214" fill="white"/>
</clipPath>
</defs>
</svg>
