<svg width="35" height="34" viewBox="0 0 35 34" fill="none" xmlns="http://www.w3.org/2000/svg">
<path d="M28.4743 0.0965576H6.18308C4.656 0.0965576 3.19147 0.703186 2.11167 1.78299C1.03186 2.8628 0.425232 4.32733 0.425232 5.8544L0.425232 27.3983L13.2701 15.8417L6.54072 7.58211H13.0121L17.5333 13.098L23.1488 9.00556L23.1701 8.98421L23.2271 8.94328L24.679 7.81164L24.4228 8.01448L24.6505 7.83655L4.40199 26.0015L2.13693 28.0264L0.572915 29.4391C0.865748 30.7078 1.57982 31.8399 2.59867 32.6506C3.61752 33.4614 4.88101 33.903 6.18308 33.9034H28.4743C29.2304 33.9034 29.9791 33.7545 30.6777 33.4651C31.3763 33.1758 32.011 32.7517 32.5457 32.217C33.0803 31.6823 33.5045 31.0476 33.7938 30.349C34.0832 29.6504 34.2321 28.9017 34.2321 28.1456V5.8544C34.2321 5.09827 34.0832 4.34954 33.7938 3.65097C33.5045 2.9524 33.0803 2.31766 32.5457 1.78299C32.011 1.24833 31.3763 0.824206 30.6777 0.534847C29.9791 0.245489 29.2304 0.0965576 28.4743 0.0965576ZM23.2004 27.8182L18.6827 22.3664L15.3501 27.8182H13.0121L24.6416 13.7101L21.8161 18.3024L29.7358 27.8182H23.2004ZM11.7754 27.8182H4.06392L31.3176 3.59112L11.7754 27.8182Z" fill="#005C73"/>
</svg>
