<svg width="25" height="24" viewBox="0 0 25 24" fill="none" xmlns="http://www.w3.org/2000/svg">
<path d="M12.6067 2.21044L10.1967 7.82044H7.78667C7.38667 7.82044 6.99667 7.85044 6.61667 7.93044L7.61667 5.53044L7.65667 5.44044L7.71667 5.28044C7.74667 5.21044 7.76667 5.15044 7.79667 5.10044C8.95667 2.41044 10.2567 1.57044 12.6067 2.21044Z" fill="#FF7000"/>
<path d="M19.3967 8.09045L19.3767 8.08045C18.7767 7.91045 18.1667 7.82045 17.5467 7.82045H11.2867L13.5367 2.59045L13.5667 2.52045C13.7067 2.57045 13.8567 2.64045 14.0067 2.69045L16.2167 3.62045C17.4467 4.13045 18.3067 4.66045 18.8367 5.30045C18.9267 5.42045 19.0067 5.53045 19.0867 5.66045C19.1767 5.80045 19.2467 5.94045 19.2867 6.09045C19.3267 6.18045 19.3567 6.26045 19.3767 6.35045C19.5267 6.86045 19.5367 7.44045 19.3967 8.09045Z" fill="#FF7000"/>
<path d="M18.9566 9.52044C18.5066 9.39044 18.0366 9.32043 17.5466 9.32043H7.78665C7.10665 9.32043 6.46665 9.45043 5.86665 9.71043C4.12665 10.4604 2.90665 12.1904 2.90665 14.2004V16.1504C2.90665 16.3904 2.92665 16.6204 2.95665 16.8604C3.17665 20.0404 4.87665 21.7404 8.05665 21.9504C8.28665 21.9804 8.51665 22.0004 8.76665 22.0004H16.5666C20.2666 22.0004 22.2166 20.2404 22.4066 16.7404C22.4166 16.5504 22.4266 16.3504 22.4266 16.1504V14.2004C22.4266 11.9904 20.9566 10.1304 18.9566 9.52044ZM15.1666 16.7504H10.1666C9.75665 16.7504 9.41665 16.4104 9.41665 16.0004C9.41665 15.5904 9.75665 15.2504 10.1666 15.2504H15.1666C15.5766 15.2504 15.9166 15.5904 15.9166 16.0004C15.9166 16.4104 15.5766 16.7504 15.1666 16.7504Z" fill="#FF7000"/>
</svg>
