<svg width="24" height="24" viewBox="0 0 24 24" fill="none" xmlns="http://www.w3.org/2000/svg">
<path fill-rule="evenodd" clip-rule="evenodd" d="M11.898 8.5237C11.778 8.52173 11.66 8.49239 11.553 8.43791C11.446 8.38343 11.3528 8.30525 11.2806 8.20932L9.24844 6.17717C9.17272 6.10447 9.11226 6.01739 9.07062 5.92102C9.02897 5.82466 9.00697 5.72096 9.0059 5.61599C9.00483 5.51102 9.02472 5.40689 9.0644 5.3097C9.10408 5.21251 9.16275 5.12421 9.23698 5.04998C9.31121 4.97575 9.39951 4.91708 9.4967 4.8774C9.59388 4.83772 9.69801 4.81784 9.80299 4.8189C9.90796 4.81997 10.0117 4.84197 10.108 4.88362C10.2044 4.92527 10.2915 4.98572 10.3642 5.06144L11.1213 5.81862V2.98923C11.1199 2.88467 11.1392 2.78087 11.1782 2.68384C11.2172 2.58682 11.275 2.49851 11.3485 2.42405C11.4219 2.34959 11.5094 2.29046 11.6058 2.2501C11.7023 2.20975 11.8058 2.18896 11.9104 2.18896C12.0149 2.18896 12.1185 2.20975 12.2149 2.2501C12.3114 2.29046 12.3989 2.34959 12.4723 2.42405C12.5457 2.49851 12.6036 2.58682 12.6426 2.68384C12.6816 2.78087 12.7009 2.88467 12.6994 2.98923V5.81862L13.4566 5.06144C13.5293 4.98572 13.6164 4.92527 13.7127 4.88362C13.8091 4.84197 13.9128 4.81997 14.0178 4.8189C14.1227 4.81784 14.2269 4.83772 14.3241 4.8774C14.4212 4.91708 14.5095 4.97575 14.5838 5.04998C14.658 5.12421 14.7167 5.21251 14.7563 5.3097C14.796 5.40689 14.8159 5.51102 14.8148 5.61599C14.8138 5.72096 14.7918 5.82466 14.7501 5.92102C14.7085 6.01739 14.648 6.10447 14.5723 6.17717L12.536 8.21343C12.4613 8.31136 12.3647 8.39043 12.2539 8.44431C12.1431 8.49819 12.0212 8.52538 11.898 8.5237ZM2.00586 11.03C2.00586 10.0227 2.83962 9.18894 3.84692 9.18894H20.1534C21.1607 9.18894 21.9945 10.0227 21.9945 11.03V19.9723C21.9945 20.9796 21.1607 21.8133 20.1534 21.8133H3.84692C2.83962 21.8133 2.00586 20.9796 2.00586 19.9723V11.03ZM18.8384 10.767H5.16196C5.16196 11.6402 4.4571 12.345 3.58391 12.345V18.6572C4.4571 18.6572 5.16196 19.3621 5.16196 20.2353H18.8384C18.8384 19.3621 19.5432 18.6572 20.4164 18.6572V12.345C19.5432 12.345 18.8384 11.6402 18.8384 10.767ZM8.84407 15.5011C8.84407 13.4712 10.2596 11.819 12.0002 11.819C13.7408 11.819 15.1563 13.4712 15.1563 15.5011C15.1563 17.531 13.7408 19.1832 12.0002 19.1832C10.2596 19.1832 8.84407 17.531 8.84407 15.5011ZM4.94408 14.7572C5.14137 14.5599 5.40896 14.4491 5.68797 14.4491C5.96699 14.4491 6.23458 14.5599 6.43187 14.7572C6.62917 14.9545 6.74001 15.2221 6.74001 15.5011C6.74001 15.7801 6.62917 16.0477 6.43187 16.245C6.23458 16.4423 5.96699 16.5532 5.68797 16.5532C5.40896 16.5532 5.14137 16.4423 4.94408 16.245C4.74678 16.0477 4.63594 15.7801 4.63594 15.5011C4.63594 15.2221 4.74678 14.9545 4.94408 14.7572ZM17.5685 14.7572C17.7658 14.5599 18.0334 14.4491 18.3124 14.4491C18.5914 14.4491 18.859 14.5599 19.0563 14.7572C19.2536 14.9545 19.3644 15.2221 19.3644 15.5011C19.3644 15.7801 19.2536 16.0477 19.0563 16.245C18.859 16.4423 18.5914 16.5532 18.3124 16.5532C18.0334 16.5532 17.7658 16.4423 17.5685 16.245C17.3712 16.0477 17.2603 15.7801 17.2603 15.5011C17.2603 15.2221 17.3712 14.9545 17.5685 14.7572Z" fill="#00D555"/>
</svg>
