<svg width="25" height="24" viewBox="0 0 25 24" fill="none" xmlns="http://www.w3.org/2000/svg">
<path d="M18.1967 7.77043C18.1267 7.76043 18.0567 7.76043 17.9867 7.77043C16.4367 7.72043 15.2067 6.45043 15.2067 4.89043C15.2067 3.30043 16.4967 2.00043 18.0967 2.00043C19.6867 2.00043 20.9867 3.29043 20.9867 4.89043C20.9767 6.45043 19.7467 7.72043 18.1967 7.77043Z" fill="#FF5555"/>
<path d="M21.4567 14.7004C20.3367 15.4504 18.7667 15.7304 17.3167 15.5404C17.6967 14.7204 17.8967 13.8104 17.9067 12.8504C17.9067 11.8504 17.6867 10.9004 17.2667 10.0704C18.7467 9.8704 20.3167 10.1504 21.4467 10.9004C23.0267 11.9404 23.0267 13.6504 21.4567 14.7004Z" fill="#FF5555"/>
<path d="M7.10666 7.77043C7.17666 7.76043 7.24666 7.76043 7.31666 7.77043C8.86666 7.72043 10.0967 6.45043 10.0967 4.89043C10.0967 3.29043 8.80666 2.00043 7.20666 2.00043C5.61666 2.00043 4.32666 3.29043 4.32666 4.89043C4.32666 6.45043 5.55666 7.72043 7.10666 7.77043Z" fill="#FF5555"/>
<path d="M7.21665 12.8504C7.21665 13.8204 7.42665 14.7404 7.80665 15.5704C6.39665 15.7204 4.92665 15.4204 3.84665 14.7104C2.26665 13.6604 2.26665 11.9504 3.84665 10.9004C4.91665 10.1804 6.42665 9.89041 7.84665 10.0504C7.43665 10.8904 7.21665 11.8404 7.21665 12.8504Z" fill="#FF5555"/>
<path d="M12.7866 15.8704C12.7066 15.8604 12.6166 15.8604 12.5266 15.8704C10.6866 15.8104 9.21664 14.3004 9.21664 12.4404C9.22664 10.5404 10.7566 9.00043 12.6666 9.00043C14.5666 9.00043 16.1066 10.5404 16.1066 12.4404C16.0966 14.3004 14.6366 15.8104 12.7866 15.8704Z" fill="#FF5555"/>
<path d="M9.53664 17.9404C8.02664 18.9504 8.02664 20.6104 9.53664 21.6104C11.2566 22.7604 14.0766 22.7604 15.7966 21.6104C17.3066 20.6004 17.3066 18.9404 15.7966 17.9404C14.0866 16.7904 11.2666 16.7904 9.53664 17.9404Z" fill="#FF5555"/>
</svg>
