<svg width="26" height="26" viewBox="0 0 26 26" fill="none" xmlns="http://www.w3.org/2000/svg">
<g clip-path="url(#clip0_77_159)">
<path d="M12.9065 -0.030639C12.8635 -0.0228265 12.8206 -0.0111078 12.7815 0.000610996C12.3167 0.10608 11.9885 0.524049 12.0003 1.00061V4.00061C11.9964 4.35999 12.1839 4.69592 12.4964 4.87952C12.8089 5.0592 13.1917 5.0592 13.5042 4.87952C13.8167 4.69592 14.0042 4.35999 14.0003 4.00061V1.00061C14.012 0.711549 13.8948 0.434205 13.6878 0.238892C13.4768 0.0396735 13.1917 -0.0579828 12.9065 -0.030639ZM6.84402 1.59436C6.51199 1.64124 6.22683 1.85217 6.0823 2.15296C5.93777 2.45374 5.95339 2.8053 6.12527 3.09436L7.62527 5.71936C7.90261 6.20374 8.51589 6.3717 9.00027 6.09436C9.48464 5.81702 9.65261 5.20374 9.37527 4.71936L7.87527 2.09436C7.67214 1.72717 7.25808 1.52795 6.84402 1.59436ZM18.8128 1.59436C18.5198 1.64905 18.2698 1.83264 18.1253 2.09436L16.6253 4.71936C16.3479 5.20374 16.5159 5.81702 17.0003 6.09436C17.4846 6.3717 18.0979 6.20374 18.3753 5.71936L19.8753 3.09436C20.0667 2.77014 20.0589 2.36389 19.8518 2.04749C19.6487 1.73108 19.2815 1.5553 18.9065 1.59436C18.8753 1.59436 18.844 1.59436 18.8128 1.59436ZM23.344 5.96936C23.3128 5.97717 23.2815 5.98889 23.2503 6.00061C23.1292 6.02014 23.012 6.06311 22.9065 6.12561L20.2815 7.62561C19.7971 7.90295 19.6292 8.51624 19.9065 9.00061C20.1839 9.48499 20.7971 9.65296 21.2815 9.37561L23.9065 7.87561C24.3753 7.67639 24.6214 7.16077 24.4768 6.67249C24.3323 6.1842 23.844 5.87952 23.344 5.96936ZM2.43777 6.00061C2.00417 6.0553 1.66042 6.38342 1.57839 6.81311C1.50027 7.2428 1.71121 7.67249 2.09402 7.87561L4.71902 9.37561C5.20339 9.65296 5.81667 9.48499 6.09402 9.00061C6.37136 8.51624 6.20339 7.90295 5.71902 7.62561L3.09402 6.12561C2.8948 6.00842 2.66433 5.96545 2.43777 6.00061ZM13.0003 6.00061C9.13308 6.00061 6.00027 9.13342 6.00027 13.0006C6.00027 16.8678 9.13308 20.0006 13.0003 20.0006C16.8675 20.0006 20.0003 16.8678 20.0003 13.0006C20.0003 9.13342 16.8675 6.00061 13.0003 6.00061ZM13.0003 8.00061C15.7581 8.00061 18.0003 10.2428 18.0003 13.0006C18.0003 15.7584 15.7581 18.0006 13.0003 18.0006C10.2425 18.0006 8.00027 15.7584 8.00027 13.0006C8.00027 10.2428 10.2425 8.00061 13.0003 8.00061ZM0.719018 12.0006C0.168237 12.0787 -0.218482 12.5905 -0.140357 13.1412C-0.0622318 13.692 0.449487 14.0787 1.00027 14.0006H4.00027C4.35964 14.0045 4.69558 13.817 4.87917 13.5045C5.05886 13.192 5.05886 12.8092 4.87917 12.4967C4.69558 12.1842 4.35964 11.9967 4.00027 12.0006H1.00027C0.969018 12.0006 0.937768 12.0006 0.906518 12.0006C0.875268 12.0006 0.844018 12.0006 0.812768 12.0006C0.781518 12.0006 0.750268 12.0006 0.719018 12.0006ZM21.719 12.0006C21.1682 12.0787 20.7815 12.5905 20.8596 13.1412C20.9378 13.692 21.4495 14.0787 22.0003 14.0006H25.0003C25.3596 14.0045 25.6956 13.817 25.8792 13.5045C26.0589 13.192 26.0589 12.8092 25.8792 12.4967C25.6956 12.1842 25.3596 11.9967 25.0003 12.0006H22.0003C21.969 12.0006 21.9378 12.0006 21.9065 12.0006C21.8753 12.0006 21.844 12.0006 21.8128 12.0006C21.7815 12.0006 21.7503 12.0006 21.719 12.0006ZM5.15652 16.4694C5.12527 16.4772 5.09402 16.4889 5.06277 16.5006C4.94167 16.5201 4.82449 16.5631 4.71902 16.6256L2.09402 18.1256C1.60964 18.403 1.44167 19.0162 1.71902 19.5006C1.99636 19.985 2.60964 20.153 3.09402 19.8756L5.71902 18.3756C6.18777 18.1764 6.43386 17.6608 6.28933 17.1725C6.1448 16.6842 5.65652 16.3795 5.15652 16.4694ZM20.6253 16.5006C20.1917 16.5553 19.8479 16.8834 19.7659 17.3131C19.6878 17.7428 19.8987 18.1725 20.2815 18.3756L22.9065 19.8756C23.3909 20.153 24.0042 19.985 24.2815 19.5006C24.5589 19.0162 24.3909 18.403 23.9065 18.1256L21.2815 16.6256C21.0823 16.5084 20.8518 16.4655 20.6253 16.5006ZM8.31277 19.7819C8.0198 19.8365 7.7698 20.0201 7.62527 20.2819L6.12527 22.9069C5.84792 23.3912 6.01589 24.0045 6.50027 24.2819C6.98464 24.5592 7.59792 24.3912 7.87527 23.9069L9.37527 21.2819C9.56667 20.9576 9.55886 20.5514 9.35183 20.235C9.14871 19.9186 8.78152 19.7428 8.40652 19.7819C8.37527 19.7819 8.34402 19.7819 8.31277 19.7819ZM17.344 19.7819C17.012 19.8287 16.7268 20.0397 16.5823 20.3405C16.4378 20.6412 16.4534 20.9928 16.6253 21.2819L18.1253 23.9069C18.4026 24.3912 19.0159 24.5592 19.5003 24.2819C19.9846 24.0045 20.1526 23.3912 19.8753 22.9069L18.3753 20.2819C18.1721 19.9147 17.7581 19.7155 17.344 19.7819ZM12.9065 20.9694C12.8635 20.9772 12.8206 20.9889 12.7815 21.0006C12.3167 21.1061 11.9885 21.524 12.0003 22.0006V25.0006C11.9964 25.36 12.1839 25.6959 12.4964 25.8795C12.8089 26.0592 13.1917 26.0592 13.5042 25.8795C13.8167 25.6959 14.0042 25.36 14.0003 25.0006V22.0006C14.012 21.7115 13.8948 21.4342 13.6878 21.2389C13.4768 21.0397 13.1917 20.942 12.9065 20.9694Z" fill="black"/>
</g>
<defs>
<clipPath id="clip0_77_159">
<rect width="26" height="26" fill="white"/>
</clipPath>
</defs>
</svg>
