<svg width="24" height="24" viewBox="0 0 24 24" fill="none" xmlns="http://www.w3.org/2000/svg">
<path d="M20.3612 3.0115H20.3972L20.4328 3.00634C20.4507 3.00376 20.4687 3.00214 20.4868 3.00151C20.5588 2.99963 20.6304 3.01334 20.6966 3.04171C20.7631 3.07023 20.8227 3.11289 20.8711 3.16671C20.9196 3.22053 20.9557 3.28424 20.9771 3.35343C20.9985 3.42262 21.0046 3.49563 20.9949 3.56739L20.9905 3.60052V3.63394V10.0075H20.9904L20.9905 10.0146C20.9915 10.0807 20.9792 10.1465 20.9546 10.2079C20.9299 10.2693 20.8932 10.3252 20.8467 10.3724C20.8003 10.4195 20.7449 10.4569 20.6838 10.4825L20.8711 10.93L20.6838 10.4825C20.6228 10.508 20.5572 10.5212 20.491 10.5212C20.4248 10.5212 20.3593 10.508 20.2982 10.4825L20.114 10.9229L20.2982 10.4825C20.2371 10.4569 20.1818 10.4195 20.1353 10.3724C20.0888 10.3252 20.0522 10.2693 20.0275 10.2079C20.0028 10.1465 19.9906 10.0807 19.9915 10.0146L19.9915 10.0146V10.0075V5.92373V4.71663L19.138 5.57018L12.3487 12.3595L12.3486 12.3594L12.3415 12.3668C12.2955 12.4147 12.2404 12.453 12.1794 12.4794C12.1184 12.5057 12.0527 12.5197 11.9863 12.5203C11.9198 12.521 11.8539 12.5084 11.7924 12.4833C11.7308 12.4582 11.6749 12.421 11.6279 12.3741C11.5809 12.3271 11.5438 12.2712 11.5187 12.2096L11.0558 12.3986L11.5187 12.2096C11.4935 12.1481 11.481 12.0822 11.4816 12.0157C11.4823 11.9493 11.4962 11.8836 11.5226 11.8226C11.549 11.7616 11.5873 11.7065 11.6352 11.6604L11.6353 11.6605L11.6425 11.6533L18.4318 4.86398L19.2853 4.01043H18.0782H13.9945V4.01038L13.9874 4.01048C13.9212 4.01141 13.8555 3.99918 13.7941 3.9745L13.6097 4.43333L13.7941 3.9745C13.7327 3.94982 13.6768 3.91317 13.6296 3.8667C13.5825 3.82022 13.545 3.76484 13.5195 3.70377C13.4939 3.6427 13.4808 3.57716 13.4808 3.51096C13.4808 3.44476 13.4939 3.37923 13.5195 3.31816C13.545 3.25709 13.5825 3.2017 13.6296 3.15523C13.6768 3.10875 13.7327 3.07211 13.7941 3.04742L13.6077 2.58348L13.7941 3.04742C13.8555 3.02274 13.9212 3.01051 13.9874 3.01145L13.9874 3.0115H13.9945H20.3612ZM19.4913 12.9988V13.0059V17.7533C19.4913 19.5348 18.0247 21.0013 16.2433 21.0013H6.24864C4.46722 21.0013 3.00064 19.5348 3.00064 17.7533V7.75869C3.00064 5.97728 4.46722 4.51069 6.24864 4.51069H10.9961V4.51074L11.0032 4.51064C11.0694 4.50971 11.1351 4.52194 11.1965 4.54662C11.2579 4.5713 11.3138 4.60795 11.361 4.65442L11.7063 4.30417L11.361 4.65443C11.4081 4.7009 11.4455 4.75628 11.4711 4.81735C11.4966 4.87842 11.5098 4.94396 11.5098 5.01016C11.5098 5.07636 11.4966 5.1419 11.4711 5.20296C11.4455 5.26403 11.4081 5.31942 11.361 5.36589L11.712 5.72194L11.361 5.3659C11.3138 5.41237 11.2579 5.44902 11.1965 5.4737C11.1351 5.49838 11.0694 5.51061 11.0032 5.50968L11.0032 5.50962H10.9961H6.24864C4.99967 5.50962 3.99957 6.50972 3.99957 7.75869V17.7533C3.99957 19.0023 4.99967 20.0024 6.24864 20.0024H16.2433C17.4923 20.0024 18.4924 19.0023 18.4924 17.7533V13.0059H18.4924L18.4923 12.9988C18.4914 12.9326 18.5036 12.8669 18.5283 12.8055C18.553 12.7441 18.5896 12.6881 18.6361 12.641C18.6826 12.5939 18.7379 12.5564 18.799 12.5309L18.6185 12.0994L18.799 12.5309C18.8601 12.5053 18.9256 12.4922 18.9918 12.4922C19.058 12.4922 19.1236 12.5053 19.1846 12.5309L19.3776 12.0696L19.1846 12.5309C19.2457 12.5564 19.3011 12.5939 19.3476 12.641C19.394 12.6881 19.4307 12.7441 19.4554 12.8055C19.48 12.8669 19.4923 12.9326 19.4913 12.9988L19.4913 12.9988Z" fill="#005C73" stroke="#B3C3C7"/>
</svg>
