<svg width="24" height="25" viewBox="0 0 24 25" fill="none" xmlns="http://www.w3.org/2000/svg">
<path d="M17 2.06049H7C4.24 2.06049 2 4.29049 2 7.04049V13.0205V14.0205C2 16.7705 4.24 19.0005 7 19.0005H8.5C8.77 19.0005 9.13 19.1805 9.3 19.4005L10.8 21.3905C11.46 22.2705 12.54 22.2705 13.2 21.3905L14.7 19.4005C14.89 19.1505 15.19 19.0005 15.5 19.0005H17C19.76 19.0005 22 16.7705 22 14.0205V7.04049C22 4.29049 19.76 2.06049 17 2.06049ZM13 13.8105H7C6.59 13.8105 6.25 13.4705 6.25 13.0605C6.25 12.6505 6.59 12.3105 7 12.3105H13C13.41 12.3105 13.75 12.6505 13.75 13.0605C13.75 13.4705 13.41 13.8105 13 13.8105ZM17 8.81049H7C6.59 8.81049 6.25 8.47049 6.25 8.06049C6.25 7.65049 6.59 7.31049 7 7.31049H17C17.41 7.31049 17.75 7.65049 17.75 8.06049C17.75 8.47049 17.41 8.81049 17 8.81049Z" fill="#005C73"/>
</svg>
