<svg width="25" height="25" viewBox="0 0 25 25" fill="none" xmlns="http://www.w3.org/2000/svg">
<path d="M10.6807 18.6783H6.89066C3.09066 18.6783 1.93066 17.5183 1.93066 13.7183V7.7183C1.93066 3.9183 3.09066 2.7583 6.89066 2.7583H17.4207C21.2207 2.7583 22.3807 3.9183 22.3807 7.7183C22.3807 8.1283 22.0407 8.4683 21.6307 8.4683C21.2207 8.4683 20.8807 8.1283 20.8807 7.7183C20.8807 4.7783 20.3607 4.2583 17.4207 4.2583H6.89066C3.95066 4.2583 3.43066 4.7783 3.43066 7.7183V13.7183C3.43066 16.6583 3.95066 17.1783 6.89066 17.1783H10.6807C11.0907 17.1783 11.4307 17.5183 11.4307 17.9283C11.4307 18.3383 11.0907 18.6783 10.6807 18.6783Z" fill="#212121"/>
<path d="M10.6807 23.1985C10.2707 23.1985 9.93066 22.8585 9.93066 22.4485V17.9185C9.93066 17.5085 10.2707 17.1685 10.6807 17.1685C11.0907 17.1685 11.4307 17.5085 11.4307 17.9185V22.4485C11.4307 22.8685 11.0907 23.1985 10.6807 23.1985Z" fill="#212121"/>
<path d="M10.6807 14.6787H2.68066C2.27066 14.6787 1.93066 14.3387 1.93066 13.9287C1.93066 13.5187 2.27066 13.1787 2.68066 13.1787H10.6807C11.0907 13.1787 11.4307 13.5187 11.4307 13.9287C11.4307 14.3387 11.0907 14.6787 10.6807 14.6787Z" fill="#212121"/>
<path d="M10.6809 23.1987H7.4209C7.0109 23.1987 6.6709 22.8587 6.6709 22.4487C6.6709 22.0387 7.0109 21.6987 7.4209 21.6987H10.6809C11.0909 21.6987 11.4309 22.0387 11.4309 22.4487C11.4309 22.8587 11.0909 23.1987 10.6809 23.1987Z" fill="#212121"/>
<path d="M19.7209 23.1984H16.1709C13.4009 23.1984 12.4609 22.2584 12.4609 19.4884V13.7784C12.4609 11.0084 13.4009 10.0684 16.1709 10.0684H19.7209C22.4909 10.0684 23.4309 11.0084 23.4309 13.7784V19.4884C23.4309 22.2684 22.4909 23.1984 19.7209 23.1984ZM16.1709 11.5684C14.2109 11.5684 13.9609 11.8184 13.9609 13.7784V19.4884C13.9609 21.4484 14.2109 21.6984 16.1709 21.6984H19.7209C21.6809 21.6984 21.9309 21.4484 21.9309 19.4884V13.7784C21.9309 11.8184 21.6809 11.5684 19.7209 11.5684H16.1709Z" fill="#212121"/>
<path d="M17.9805 19.9483C17.7205 19.9483 17.4605 19.8483 17.2705 19.6583C17.1805 19.5683 17.1105 19.4583 17.0605 19.3383C17.0105 19.2083 16.9805 19.0783 16.9805 18.9483C16.9805 18.6883 17.0905 18.4283 17.2705 18.2483C17.5005 18.0183 17.8505 17.9083 18.1805 17.9683C18.2405 17.9883 18.3005 18.0083 18.3605 18.0283C18.4205 18.0583 18.4805 18.0883 18.5305 18.1183C18.5905 18.1583 18.6405 18.1983 18.6905 18.2483C18.8705 18.4283 18.9805 18.6883 18.9805 18.9483C18.9805 19.0783 18.9505 19.2083 18.9005 19.3383C18.8505 19.4583 18.7805 19.5683 18.6905 19.6583C18.6405 19.7083 18.5905 19.7483 18.5305 19.7783C18.4805 19.8183 18.4205 19.8483 18.3605 19.8783C18.3005 19.8983 18.2405 19.9183 18.1805 19.9283C18.1105 19.9483 18.0505 19.9483 17.9805 19.9483Z" fill="#212121"/>
</svg>
