<svg width="20" height="21" viewBox="0 0 20 21" fill="none" xmlns="http://www.w3.org/2000/svg">
<g opacity="0.5">
<path d="M16.7334 9.21299L17.7243 7.58693C17.8194 7.39718 17.8398 7.17862 17.7815 6.97454C17.7231 6.77047 17.5902 6.59574 17.4092 6.48497C17.2281 6.37421 17.0121 6.33547 16.8038 6.37643C16.5955 6.41739 16.4102 6.53506 16.2846 6.70615L15.2598 8.37455C14.4967 8.00259 13.6961 7.713 12.8716 7.51071L13.2442 5.64752C13.2631 5.43938 13.2044 5.2316 13.0794 5.06414C12.9543 4.89668 12.7718 4.78137 12.5669 4.74038C12.3619 4.6994 12.1491 4.73563 11.9692 4.84212C11.7894 4.94861 11.6553 5.11782 11.5927 5.31722L11.2116 7.21429C10.3838 7.12993 9.54954 7.12993 8.72172 7.21429L8.34061 5.31722C8.32985 5.19888 8.29431 5.08413 8.2363 4.98042C8.17829 4.87672 8.0991 4.78638 8.00388 4.71529C7.90867 4.6442 7.79956 4.59393 7.68365 4.56777C7.56773 4.54161 7.44761 4.54013 7.33109 4.56344C7.21457 4.58674 7.10426 4.6343 7.00732 4.70304C6.91039 4.77177 6.829 4.86013 6.76846 4.96238C6.70791 5.06462 6.66956 5.17847 6.65589 5.29651C6.64223 5.41455 6.65356 5.53414 6.68914 5.64752L7.06178 7.51071C6.23181 7.71397 5.43572 8.00192 4.67351 8.37455L3.64875 6.70615C3.52312 6.53506 3.33782 6.41739 3.12955 6.37643C2.92128 6.33547 2.70522 6.37421 2.52416 6.48497C2.34309 6.59574 2.21022 6.77047 2.15186 6.97454C2.0935 7.17862 2.11389 7.39718 2.20901 7.58693L3.19989 9.21299C2.53084 9.66185 1.90413 10.1869 1.31976 10.7798C1.16253 10.9404 1.07554 11.1568 1.07792 11.3816C1.0803 11.6063 1.17187 11.8209 1.33246 11.9781C1.49306 12.1354 1.70954 12.2224 1.93428 12.22C2.15902 12.2176 2.37361 12.126 2.53084 11.9654C4.50413 9.9498 7.14647 8.84035 9.96667 8.84035C12.7869 8.84035 15.4292 9.9498 17.411 11.9654C17.4884 12.0451 17.5809 12.1086 17.6831 12.1522C17.7853 12.1958 17.8952 12.2187 18.0063 12.2195C18.1174 12.2203 18.2275 12.199 18.3303 12.1568C18.4331 12.1146 18.5265 12.0525 18.6051 11.9739C18.764 11.8163 18.854 11.6023 18.8556 11.3786C18.8572 11.1548 18.7702 10.9396 18.6136 10.7798C18.0408 10.196 17.4109 9.67116 16.7334 9.21299Z" fill="#212121"/>
<path d="M9.93332 10.9677L9.96676 10.9692L10.0002 10.9677C10.4357 10.9475 10.8709 11.0158 11.2792 11.1686C11.6876 11.3213 12.0607 11.5553 12.3761 11.8564C12.6914 12.1575 12.9425 12.5194 13.114 12.9202C13.2855 13.3211 13.3739 13.7526 13.3739 14.1886C13.3739 14.6246 13.2855 15.056 13.114 15.4569C12.9425 15.8578 12.6914 16.2197 12.3761 16.5207C12.0607 16.8218 11.6876 17.0558 11.2792 17.2086C10.8709 17.3613 10.4357 17.4297 10.0002 17.4095L9.96676 17.4079L9.93332 17.4095C9.49778 17.4297 9.06268 17.3613 8.65431 17.2086C8.24595 17.0558 7.8728 16.8218 7.55745 16.5207C7.24209 16.2197 6.99107 15.8578 6.81956 15.4569C6.64806 15.056 6.55963 14.6246 6.55963 14.1886C6.55963 13.7526 6.64806 13.3211 6.81956 12.9202C6.99107 12.5194 7.24209 12.1575 7.55745 11.8564C7.8728 11.5553 8.24595 11.3213 8.65431 11.1686C9.06268 11.0158 9.49778 10.9475 9.93332 10.9677Z" stroke="#212121" stroke-width="1.44444"/>
</g>
</svg>
