<svg width="24" height="24" viewBox="0 0 24 24" fill="none" xmlns="http://www.w3.org/2000/svg">
<path d="M11.9878 2.00105C11.8678 2.00302 11.7498 2.03236 11.6428 2.08684C11.5358 2.14132 11.4426 2.2195 11.3704 2.31543L9.33824 4.34758C9.26252 4.42028 9.20206 4.50736 9.16042 4.60373C9.11877 4.70009 9.09677 4.80379 9.0957 4.90876C9.09463 5.01374 9.11452 5.11786 9.1542 5.21505C9.19388 5.31224 9.25255 5.40054 9.32678 5.47477C9.40101 5.549 9.48931 5.60767 9.58649 5.64735C9.68368 5.68703 9.78781 5.70692 9.89278 5.70585C9.99776 5.70478 10.1015 5.68278 10.1978 5.64113C10.2942 5.59949 10.3813 5.53903 10.454 5.46331L11.2111 4.70613V7.53552C11.2097 7.64008 11.229 7.74389 11.268 7.84091C11.307 7.93793 11.3648 8.02624 11.4383 8.1007C11.5117 8.17516 11.5992 8.23429 11.6956 8.27465C11.7921 8.315 11.8956 8.33579 12.0002 8.33579C12.1047 8.33579 12.2083 8.315 12.3047 8.27465C12.4012 8.23429 12.4887 8.17516 12.5621 8.1007C12.6355 8.02624 12.6934 7.93793 12.7324 7.84091C12.7714 7.74389 12.7907 7.64008 12.7892 7.53552V4.70613L13.5464 5.46331C13.6191 5.53903 13.7062 5.59949 13.8025 5.64113C13.8989 5.68278 14.0026 5.70478 14.1076 5.70585C14.2125 5.70692 14.3167 5.68703 14.4138 5.64735C14.511 5.60767 14.5993 5.549 14.6736 5.47477C14.7478 5.40054 14.8065 5.31224 14.8461 5.21505C14.8858 5.11786 14.9057 5.01374 14.9046 4.90876C14.9036 4.80379 14.8816 4.70009 14.8399 4.60373C14.7983 4.50736 14.7378 4.42028 14.6621 4.34758L12.6258 2.31132C12.5511 2.21339 12.4545 2.13432 12.3437 2.08044C12.2329 2.02656 12.111 1.99937 11.9878 2.00105ZM3.84692 9.37658C2.83962 9.37658 2.00586 10.2103 2.00586 11.2176V20.1599C2.00586 21.1672 2.83962 22.001 3.84692 22.001H20.1534C21.1607 22.001 21.9945 21.1672 21.9945 20.1599V11.2176C21.9945 10.2103 21.1607 9.37658 20.1534 9.37658H3.84692ZM5.16196 10.9546H18.8384C18.8384 11.8278 19.5432 12.5327 20.4164 12.5327V18.8449C19.5432 18.8449 18.8384 19.5497 18.8384 20.4229H5.16196C5.16196 19.5497 4.4571 18.8449 3.58391 18.8449V12.5327C4.4571 12.5327 5.16196 11.8278 5.16196 10.9546ZM12.0002 12.0067C10.2596 12.0067 8.84407 13.6589 8.84407 15.6888C8.84407 17.7187 10.2596 19.3709 12.0002 19.3709C13.7408 19.3709 15.1563 17.7187 15.1563 15.6888C15.1563 13.6589 13.7408 12.0067 12.0002 12.0067ZM5.68797 14.6367C5.40896 14.6367 5.14137 14.7476 4.94408 14.9449C4.74678 15.1422 4.63594 15.4098 4.63594 15.6888C4.63594 15.9678 4.74678 16.2354 4.94408 16.4327C5.14137 16.63 5.40896 16.7408 5.68797 16.7408C5.96699 16.7408 6.23458 16.63 6.43187 16.4327C6.62917 16.2354 6.74001 15.9678 6.74001 15.6888C6.74001 15.4098 6.62917 15.1422 6.43187 14.9449C6.23458 14.7476 5.96699 14.6367 5.68797 14.6367ZM18.3124 14.6367C18.0334 14.6367 17.7658 14.7476 17.5685 14.9449C17.3712 15.1422 17.2603 15.4098 17.2603 15.6888C17.2603 15.9678 17.3712 16.2354 17.5685 16.4327C17.7658 16.63 18.0334 16.7408 18.3124 16.7408C18.5914 16.7408 18.859 16.63 19.0563 16.4327C19.2536 16.2354 19.3644 15.9678 19.3644 15.6888C19.3644 15.4098 19.2536 15.1422 19.0563 14.9449C18.859 14.7476 18.5914 14.6367 18.3124 14.6367Z" fill="#FF5555"/>
</svg>
