<svg width="29" height="29" viewBox="0 0 29 29" fill="none" xmlns="http://www.w3.org/2000/svg">
<path d="M5.47911 22.4855C5.74147 24.4342 7.35548 25.9608 9.3196 26.0511C10.9723 26.127 12.6512 26.1667 14.5 26.1667C16.3488 26.1667 18.0276 26.127 19.6803 26.0511C21.6445 25.9608 23.2585 24.4342 23.5209 22.4855C23.6922 21.2138 23.8333 19.9105 23.8333 18.5833C23.8333 17.2561 23.6922 15.9529 23.5209 14.6812C23.2585 12.7325 21.6445 11.2059 19.6803 11.1156C18.0276 11.0396 16.3488 11 14.5 11C12.6512 11 10.9723 11.0396 9.3196 11.1156C7.35548 11.2059 5.74147 12.7325 5.47911 14.6812C5.30789 15.9529 5.16666 17.2561 5.16666 18.5833C5.16666 19.9105 5.30789 21.2138 5.47911 22.4855Z" stroke="#9E9E9E" stroke-width="1.75"/>
<path d="M9.25 11.0002V8.0835C9.25 5.184 11.6005 2.8335 14.5 2.8335C17.3995 2.8335 19.75 5.184 19.75 8.0835V11.0002" stroke="#9E9E9E" stroke-width="1.75" stroke-linecap="round" stroke-linejoin="round"/>
<path d="M19.1667 18.5718V18.5834" stroke="#9E9E9E" stroke-width="2.33333" stroke-linecap="round" stroke-linejoin="round"/>
<path d="M14.5 18.5718V18.5834" stroke="#9E9E9E" stroke-width="2.33333" stroke-linecap="round" stroke-linejoin="round"/>
<path d="M9.83334 18.5718V18.5834" stroke="#9E9E9E" stroke-width="2.33333" stroke-linecap="round" stroke-linejoin="round"/>
</svg>
