<svg width="24" height="24" viewBox="0 0 24 24" fill="none" xmlns="http://www.w3.org/2000/svg">
<mask id="path-1-inside-1_859_1000" fill="white">
<path d="M11.9029 2.00147C11.5288 2.00147 11.1586 2.02236 10.7935 2.06299C10.6604 2.07427 10.531 2.11208 10.4128 2.17418C10.2946 2.23629 10.19 2.32144 10.1053 2.4246C10.0205 2.52777 9.95725 2.64686 9.91924 2.77486C9.88124 2.90287 9.86926 3.03718 9.88399 3.16989C9.89873 3.3026 9.9399 3.43101 10.0051 3.54756C10.0702 3.6641 10.1581 3.76642 10.2634 3.84847C10.3687 3.93052 10.4894 3.99065 10.6184 4.02531C10.7473 4.05997 10.8819 4.06846 11.0142 4.05027C11.305 4.0179 11.6019 4.00144 11.9029 4.00144C16.3328 4.00144 19.9027 7.57135 19.9027 12.0013C19.9027 16.4313 16.3328 20.0012 11.9029 20.0012C11.6019 20.0012 11.305 19.9848 11.0142 19.9524C10.9811 19.9481 10.9479 19.9455 10.9146 19.9446C10.6559 19.9386 10.405 20.0331 10.2146 20.2083C10.0241 20.3834 9.90896 20.6256 9.89328 20.8838C9.87761 21.1421 9.96263 21.3964 10.1305 21.5933C10.2984 21.7901 10.536 21.9143 10.7935 21.9397C11.1314 21.9773 11.4742 21.9964 11.8198 21.9992C11.8475 22.001 11.8752 22.0017 11.9029 22.0012C17.4137 22.0012 21.9027 17.5122 21.9027 12.0013C21.9027 6.51697 17.4564 2.04634 11.982 2.00342C11.9556 2.00173 11.9292 2.00108 11.9029 2.00147ZM7.56893 3.16356L7.00936 3.28661L6.73886 3.437L6.67245 3.47801L6.08945 3.86472L6.02695 3.90965L5.47716 4.33933L5.41856 4.38913L5.15783 4.62839L4.83263 5.38912L5.192 6.1352L5.99082 6.35395L6.50742 6.10395L6.73788 5.89302L7.23592 5.50435L7.74275 5.16842L7.98201 5.03365L8.47419 4.36765L8.29548 3.56004L7.56893 3.16356ZM4.02503 7.30511L3.20277 7.40374L2.81899 7.82951L2.71841 8.04338L2.68716 8.11564L2.43423 8.77872L2.40884 8.85489L2.20865 9.5414L2.18912 9.61953L2.10904 10.0101L2.29165 10.8178L3.02114 11.2103L3.79554 10.9193L4.068 10.4144L4.14026 10.0609L4.31702 9.45547L4.54358 8.86173L4.62658 8.68692L4.63928 7.85881L4.02503 7.30511ZM15.4575 8.49161C15.312 8.48522 15.1669 8.51065 15.0323 8.56614C14.8977 8.62164 14.7769 8.70585 14.6782 8.8129L10.6021 13.1029L8.57575 11.2611C8.47854 11.1727 8.36488 11.1044 8.24126 11.06C8.11764 11.0155 7.98647 10.9959 7.85526 11.0021C7.72404 11.0084 7.59535 11.0404 7.47651 11.0964C7.35768 11.1524 7.25104 11.2313 7.16268 11.3285C7.07432 11.4257 7.00597 11.5394 6.96154 11.663C6.91711 11.7866 6.89746 11.9178 6.90372 12.049C6.90997 12.1802 6.94201 12.3089 6.99801 12.4277C7.054 12.5466 7.13286 12.6532 7.23006 12.7416L9.98003 15.2415C10.1735 15.4172 10.4281 15.5102 10.6893 15.5005C10.9505 15.4908 11.1975 15.3793 11.3775 15.1898L16.1274 10.1898C16.2623 10.0518 16.3544 9.87775 16.3926 9.68858C16.4308 9.4994 16.4134 9.30322 16.3426 9.12369C16.2718 8.94416 16.1506 8.78896 15.9935 8.6768C15.8364 8.56465 15.6503 8.50033 15.4575 8.49161ZM2.7809 12.8402L2.16568 13.3939L2.09732 13.9632L2.10611 14.014L2.11978 14.0804L2.26333 14.6683L2.28189 14.7327L2.46255 15.305L2.48501 15.3675L2.7018 15.9222L2.72817 15.9837L2.81704 16.1722L3.44789 16.7083L4.26624 16.5853L4.71154 15.888L4.62658 15.3206L4.55334 15.1654L4.35608 14.6615L4.20081 14.1693L4.07093 13.64L4.068 13.6224L4.06604 13.6195L4.06311 13.6078L4.05921 13.6087L3.60218 12.9388L2.7809 12.8402ZM5.71934 17.6448L5.00939 18.0706L4.86291 18.885L5.15685 19.3772L5.37755 19.5784L5.42735 19.6204L5.88438 19.9866L5.93614 20.0256L6.4166 20.3625L6.47128 20.3977L6.97421 20.7034L7.79646 20.802L8.41071 20.2473L8.39704 19.4192L8.01228 18.9944L7.54256 18.7092L7.12264 18.4163L6.70761 18.0843L6.50644 17.9007L5.71934 17.6448Z"/>
</mask>
<path d="M11.9029 2.00147C11.5288 2.00147 11.1586 2.02236 10.7935 2.06299C10.6604 2.07427 10.531 2.11208 10.4128 2.17418C10.2946 2.23629 10.19 2.32144 10.1053 2.4246C10.0205 2.52777 9.95725 2.64686 9.91924 2.77486C9.88124 2.90287 9.86926 3.03718 9.88399 3.16989C9.89873 3.3026 9.9399 3.43101 10.0051 3.54756C10.0702 3.6641 10.1581 3.76642 10.2634 3.84847C10.3687 3.93052 10.4894 3.99065 10.6184 4.02531C10.7473 4.05997 10.8819 4.06846 11.0142 4.05027C11.305 4.0179 11.6019 4.00144 11.9029 4.00144C16.3328 4.00144 19.9027 7.57135 19.9027 12.0013C19.9027 16.4313 16.3328 20.0012 11.9029 20.0012C11.6019 20.0012 11.305 19.9848 11.0142 19.9524C10.9811 19.9481 10.9479 19.9455 10.9146 19.9446C10.6559 19.9386 10.405 20.0331 10.2146 20.2083C10.0241 20.3834 9.90896 20.6256 9.89328 20.8838C9.87761 21.1421 9.96263 21.3964 10.1305 21.5933C10.2984 21.7901 10.536 21.9143 10.7935 21.9397C11.1314 21.9773 11.4742 21.9964 11.8198 21.9992C11.8475 22.001 11.8752 22.0017 11.9029 22.0012C17.4137 22.0012 21.9027 17.5122 21.9027 12.0013C21.9027 6.51697 17.4564 2.04634 11.982 2.00342C11.9556 2.00173 11.9292 2.00108 11.9029 2.00147ZM7.56893 3.16356L7.00936 3.28661L6.73886 3.437L6.67245 3.47801L6.08945 3.86472L6.02695 3.90965L5.47716 4.33933L5.41856 4.38913L5.15783 4.62839L4.83263 5.38912L5.192 6.1352L5.99082 6.35395L6.50742 6.10395L6.73788 5.89302L7.23592 5.50435L7.74275 5.16842L7.98201 5.03365L8.47419 4.36765L8.29548 3.56004L7.56893 3.16356ZM4.02503 7.30511L3.20277 7.40374L2.81899 7.82951L2.71841 8.04338L2.68716 8.11564L2.43423 8.77872L2.40884 8.85489L2.20865 9.5414L2.18912 9.61953L2.10904 10.0101L2.29165 10.8178L3.02114 11.2103L3.79554 10.9193L4.068 10.4144L4.14026 10.0609L4.31702 9.45547L4.54358 8.86173L4.62658 8.68692L4.63928 7.85881L4.02503 7.30511ZM15.4575 8.49161C15.312 8.48522 15.1669 8.51065 15.0323 8.56614C14.8977 8.62164 14.7769 8.70585 14.6782 8.8129L10.6021 13.1029L8.57575 11.2611C8.47854 11.1727 8.36488 11.1044 8.24126 11.06C8.11764 11.0155 7.98647 10.9959 7.85526 11.0021C7.72404 11.0084 7.59535 11.0404 7.47651 11.0964C7.35768 11.1524 7.25104 11.2313 7.16268 11.3285C7.07432 11.4257 7.00597 11.5394 6.96154 11.663C6.91711 11.7866 6.89746 11.9178 6.90372 12.049C6.90997 12.1802 6.94201 12.3089 6.99801 12.4277C7.054 12.5466 7.13286 12.6532 7.23006 12.7416L9.98003 15.2415C10.1735 15.4172 10.4281 15.5102 10.6893 15.5005C10.9505 15.4908 11.1975 15.3793 11.3775 15.1898L16.1274 10.1898C16.2623 10.0518 16.3544 9.87775 16.3926 9.68858C16.4308 9.4994 16.4134 9.30322 16.3426 9.12369C16.2718 8.94416 16.1506 8.78896 15.9935 8.6768C15.8364 8.56465 15.6503 8.50033 15.4575 8.49161ZM2.7809 12.8402L2.16568 13.3939L2.09732 13.9632L2.10611 14.014L2.11978 14.0804L2.26333 14.6683L2.28189 14.7327L2.46255 15.305L2.48501 15.3675L2.7018 15.9222L2.72817 15.9837L2.81704 16.1722L3.44789 16.7083L4.26624 16.5853L4.71154 15.888L4.62658 15.3206L4.55334 15.1654L4.35608 14.6615L4.20081 14.1693L4.07093 13.64L4.068 13.6224L4.06604 13.6195L4.06311 13.6078L4.05921 13.6087L3.60218 12.9388L2.7809 12.8402ZM5.71934 17.6448L5.00939 18.0706L4.86291 18.885L5.15685 19.3772L5.37755 19.5784L5.42735 19.6204L5.88438 19.9866L5.93614 20.0256L6.4166 20.3625L6.47128 20.3977L6.97421 20.7034L7.79646 20.802L8.41071 20.2473L8.39704 19.4192L8.01228 18.9944L7.54256 18.7092L7.12264 18.4163L6.70761 18.0843L6.50644 17.9007L5.71934 17.6448Z" fill="#212121" stroke="#005C73" stroke-width="2" mask="url(#path-1-inside-1_859_1000)"/>
</svg>
