<svg width="24" height="24" viewBox="0 0 24 24" fill="none" xmlns="http://www.w3.org/2000/svg">
<path d="M3.11179 2.00146C2.89115 2.00173 2.6756 2.06777 2.49267 2.19115C2.30975 2.31452 2.16775 2.48962 2.08482 2.69409C2.0019 2.89855 1.98181 3.1231 2.02712 3.33904C2.07243 3.55498 2.18108 3.75251 2.3392 3.9064L4.20729 5.77449C2.83865 7.48391 2.01412 9.64602 2.01412 11.9986C2.01412 14.3512 2.83865 16.5133 4.20729 18.2227L2.3392 20.0908C2.23271 20.193 2.14769 20.3155 2.08912 20.451C2.03055 20.5865 1.99961 20.7324 1.9981 20.88C1.9966 21.0276 2.02457 21.174 2.08037 21.3107C2.13617 21.4474 2.21868 21.5716 2.32307 21.6759C2.42746 21.7803 2.55163 21.8628 2.6883 21.9186C2.82498 21.9744 2.97142 22.0024 3.11904 22.0009C3.26666 21.9994 3.41249 21.9685 3.54801 21.9099C3.68352 21.8513 3.80598 21.7663 3.90822 21.6598L5.77632 19.7917C7.48573 21.1604 9.64785 21.9849 12.0004 21.9849C14.353 21.9849 16.5151 21.1604 18.2245 19.7917L20.0926 21.6598C20.1949 21.7663 20.3173 21.8513 20.4528 21.9099C20.5884 21.9685 20.7342 21.9994 20.8818 22.0009C21.0294 22.0024 21.1759 21.9745 21.3125 21.9187C21.4492 21.8629 21.5734 21.7803 21.6778 21.676C21.7822 21.5716 21.8647 21.4474 21.9205 21.3107C21.9763 21.174 22.0042 21.0276 22.0027 20.88C22.0012 20.7324 21.9703 20.5865 21.9117 20.451C21.8532 20.3155 21.7681 20.193 21.6616 20.0908L19.7936 18.2227C21.1622 16.5133 21.9867 14.3512 21.9867 11.9986C21.9867 9.64602 21.1622 7.48391 19.7936 5.77449L21.6616 3.9064C21.822 3.75054 21.9315 3.54988 21.9758 3.33072C22.0202 3.11155 21.9973 2.8841 21.9101 2.67818C21.823 2.47226 21.6756 2.29746 21.4875 2.17671C21.2993 2.05595 21.079 1.99487 20.8555 2.00146C20.5672 2.01005 20.2936 2.13053 20.0926 2.33737L18.2245 4.20547C16.5151 2.83683 14.353 2.01229 12.0004 2.01229C9.64785 2.01229 7.48573 2.83683 5.77632 4.20547L3.90822 2.33737C3.80469 2.23095 3.68086 2.14638 3.54406 2.08868C3.40726 2.03098 3.26026 2.00132 3.11179 2.00146ZM12.0004 4.23147C14.0872 4.23147 15.9724 5.05114 17.3652 6.3813C17.435 6.47806 17.5199 6.56295 17.6166 6.63269C18.9474 8.02562 19.7675 9.91123 19.7675 11.9986C19.7675 14.0965 18.9399 15.9913 17.5971 17.3862C17.5179 17.4465 17.4472 17.5172 17.3869 17.5964C15.9921 18.9385 14.0978 19.7657 12.0004 19.7657C9.90031 19.7657 8.00382 18.9362 6.60851 17.591C6.54975 17.5145 6.48127 17.446 6.4048 17.3873C5.06144 15.9922 4.2333 14.097 4.2333 11.9986C4.2333 9.91179 5.05297 8.02659 6.38313 6.63378C6.47989 6.56403 6.56478 6.47915 6.63452 6.38238C8.02744 5.0516 9.91306 4.23147 12.0004 4.23147Z" fill="#005C73"/>
</svg>
