<svg width="19" height="19" viewBox="0 0 19 19" fill="none" xmlns="http://www.w3.org/2000/svg">
<path d="M8.66302 15.723C4.68626 15.723 1.45605 12.4928 1.45605 8.51605C1.45605 4.53928 4.68626 1.30908 8.66302 1.30908C12.6398 1.30908 15.87 4.53928 15.87 8.51605C15.87 12.4928 12.6398 15.723 8.66302 15.723ZM8.66302 2.41785C5.29977 2.41785 2.56482 5.1528 2.56482 8.51605C2.56482 11.8793 5.29977 14.6143 8.66302 14.6143C12.0263 14.6143 14.7612 11.8793 14.7612 8.51605C14.7612 5.1528 12.0263 2.41785 8.66302 2.41785Z" fill="#757575"/>
<path d="M15.4342 17.2311C15.3751 17.2311 15.316 17.2237 15.2642 17.2163C14.9168 17.172 14.2885 16.9354 13.9337 15.8784C13.7489 15.324 13.8154 14.7696 14.1185 14.3483C14.4216 13.927 14.9316 13.6904 15.5155 13.6904C16.2695 13.6904 16.8608 13.9787 17.127 14.4887C17.3931 14.9988 17.3191 15.6492 16.8978 16.2775C16.373 17.0685 15.8038 17.2311 15.4342 17.2311ZM14.9907 15.531C15.1164 15.9154 15.2938 16.1075 15.4121 16.1223C15.5303 16.1371 15.7521 15.9967 15.9812 15.664C16.1956 15.3462 16.2104 15.117 16.1586 15.0136C16.1069 14.9101 15.8999 14.7992 15.5155 14.7992C15.2864 14.7992 15.1164 14.8731 15.0203 14.9988C14.9316 15.1244 14.9168 15.3166 14.9907 15.531Z" fill="#757575"/>
</svg>
