<svg width="23" height="23" viewBox="0 0 23 23" fill="none" xmlns="http://www.w3.org/2000/svg">
<path d="M17.1376 9.38827H11.855L9.21316 4.81355C8.99735 4.43927 8.51777 4.31208 8.14558 4.52789C7.77131 4.7437 7.64411 5.22223 7.85992 5.59547L10.5018 10.1702L7.85992 14.746C7.64411 15.1202 7.77235 15.5977 8.14558 15.8135C8.2686 15.8844 8.40309 15.9188 8.53654 15.9188C8.80656 15.9188 9.06928 15.7791 9.2142 15.5279L11.856 10.9521H17.1386C17.5703 10.9521 17.9206 10.6018 17.9206 10.1702C17.9206 9.73857 17.5703 9.38827 17.1386 9.38827H17.1376Z" fill="black"/>
<path d="M18.9624 9.3881H17.8688C17.7937 8.7657 17.6342 8.16936 17.3965 7.61367L18.3411 7.06842C18.7153 6.85261 18.8425 6.37408 18.6267 6.00084C18.4109 5.62657 17.9324 5.49938 17.5591 5.71519L16.6073 6.26461C16.2382 5.77357 15.8014 5.33778 15.3114 4.96872L15.8608 4.01582C16.0766 3.64155 15.9484 3.16406 15.5752 2.94825C15.2019 2.7314 14.7234 2.85963 14.5076 3.23391L13.9623 4.17846C13.4066 3.93972 12.8103 3.78125 12.1879 3.70619V2.6115C12.1879 2.17989 11.8376 1.82959 11.406 1.82959C10.9744 1.82959 10.6241 2.17989 10.6241 2.6115V3.70514C10.0017 3.78021 9.40533 3.93972 8.84965 4.17742L8.30439 3.23287C8.08754 2.85859 7.60901 2.73036 7.23682 2.94721C6.86254 3.16302 6.73535 3.64155 6.95116 4.01478L7.50058 4.96768C7.00954 5.33674 6.57375 5.77253 6.20469 6.26357L5.25284 5.71414C4.88065 5.49833 4.40107 5.62553 4.18526 5.9998C3.96946 6.37408 4.09769 6.85157 4.47092 7.06738L5.41548 7.61263C5.17777 8.16831 5.01826 8.76465 4.9432 9.38706H3.84539C3.41377 9.38706 3.06348 9.73736 3.06348 10.169C3.06348 10.6006 3.41377 10.9509 3.84539 10.9509H4.93903C5.01409 11.5733 5.1736 12.1696 5.41131 12.7253L4.46675 13.2706C4.09248 13.4864 3.96529 13.9649 4.18109 14.3381C4.32601 14.5894 4.58873 14.7291 4.85875 14.7291C4.99116 14.7291 5.12565 14.6957 5.24971 14.6238L6.20156 14.0744C6.57063 14.5654 7.00746 15.0012 7.49746 15.3703L6.94803 16.3232C6.73222 16.6974 6.86046 17.1749 7.23369 17.3907C7.35671 17.4616 7.4912 17.496 7.62465 17.496C7.89467 17.496 8.15739 17.3563 8.30231 17.1051L8.84756 16.1605C9.40324 16.3993 9.99958 16.5577 10.622 16.6328V17.7264C10.622 18.1581 10.9723 18.5084 11.4039 18.5084C11.8355 18.5084 12.1858 18.1581 12.1858 17.7264V16.6328C12.8082 16.5577 13.4046 16.3982 13.9602 16.1605L14.5055 17.1051C14.6504 17.3563 14.9131 17.496 15.1832 17.496C15.3156 17.496 15.4501 17.4627 15.5741 17.3907C15.9484 17.1749 16.0756 16.6964 15.8598 16.3232L15.3103 15.3703C15.8014 15.0012 16.2372 14.5654 16.6062 14.0744L17.5581 14.6238C17.6811 14.6947 17.8156 14.7291 17.9491 14.7291C18.2191 14.7291 18.4818 14.5894 18.6267 14.3381C18.8425 13.9639 18.7143 13.4864 18.3411 13.2706L17.3965 12.7253C17.6342 12.1696 17.7937 11.5733 17.8688 10.9509H18.9624C19.394 10.9509 19.7443 10.6006 19.7443 10.169C19.7443 9.73736 19.394 9.38706 18.9624 9.38706V9.3881ZM11.4039 15.1221C8.67346 15.1221 6.45177 12.9005 6.45177 10.17C6.45177 7.43957 8.67346 5.21789 11.4039 5.21789C14.1343 5.21789 16.356 7.43957 16.356 10.17C16.356 12.9005 14.1343 15.1221 11.4039 15.1221Z" fill="black"/>
</svg>
