<svg width="23" height="22" viewBox="0 0 23 22" fill="none" xmlns="http://www.w3.org/2000/svg">
<path d="M14.7775 5.61403C13.6705 3.78824 11.6698 2.56396 9.37895 2.56396C5.89113 2.56396 3.06348 5.39162 3.06348 8.88045C3.06348 10.0289 3.37485 11.1035 3.91167 12.0316C4.28573 12.7342 3.86618 14.3942 3.06348 15.1959C4.15228 15.2546 5.58785 14.7632 6.22778 14.3477C6.6534 14.5934 7.32973 14.9199 8.21331 15.0867C8.32654 15.108 8.44785 15.1039 8.5631 15.1191" stroke="black" stroke-width="1.78723" stroke-linecap="round" stroke-linejoin="round"/>
<path d="M15.1949 8.12012C17.7071 8.12012 19.7442 10.1572 19.7442 12.6694C19.7442 13.4974 19.5198 14.2708 19.1336 14.9401C18.8636 15.4455 19.1669 16.6415 19.7442 17.2198C18.9597 17.2622 17.9265 16.9074 17.4645 16.6092C17.1582 16.7861 16.6709 17.0206 16.034 17.1419C15.762 17.1935 15.481 17.2208 15.1939 17.2208C12.6806 17.2208 10.6445 15.1837 10.6445 12.6715C10.6445 10.1582 12.6816 8.12214 15.1939 8.12214L15.1949 8.12012Z" stroke="black" stroke-width="1.78723" stroke-linecap="round" stroke-linejoin="round"/>
</svg>
