<svg width="24" height="24" viewBox="0 0 24 24" fill="none" xmlns="http://www.w3.org/2000/svg">
<path d="M20 6.00043V6.24043H14.87C11.9 6.24043 10.52 7.62043 10.52 10.5904V15.7004H9.74997V19.2504H10.52V20.7504H4.94997C4.53997 20.7504 4.19997 20.4104 4.19997 20.0004C4.19997 19.5904 4.53997 19.2504 4.94997 19.2504H8.24997V15.7004H5.99997C2.86997 15.7004 2.02997 14.9304 1.99997 11.9004V6.00043C1.99997 2.80043 2.79997 2.00043 5.99997 2.00043H16C19.2 2.00043 20 2.80043 20 6.00043Z" fill="#005C73"/>
<path d="M20 7.79042C19.75 7.76042 19.46 7.74042 19.15 7.74042H14.87C12.73 7.74042 12.02 8.45042 12.02 10.5904V19.2504C12.03 19.8704 12.1 20.3604 12.25 20.7504C12.6 21.6604 13.39 22.0004 14.87 22.0004H19.15C21.29 22.0004 22 21.2904 22 19.1504V10.5904C22 8.76042 21.48 7.98042 20 7.79042ZM17.01 10.0904C17.88 10.0904 18.58 10.7904 18.58 11.6604C18.58 12.5304 17.88 13.2304 17.01 13.2304C16.14 13.2304 15.44 12.5304 15.44 11.6604C15.44 10.7904 16.14 10.0904 17.01 10.0904ZM17.01 19.1504C15.83 19.1504 14.87 18.1904 14.87 17.0104C14.87 16.5204 15.04 16.0604 15.32 15.7004C15.71 15.2004 16.32 14.8704 17.01 14.8704C17.55 14.8704 18.04 15.0704 18.41 15.3904C18.86 15.7904 19.15 16.3704 19.15 17.0104C19.15 18.1904 18.19 19.1504 17.01 19.1504Z" fill="#005C73"/>
<path d="M20 7.79042C19.75 7.76042 19.46 7.74042 19.15 7.74042H14.87C12.73 7.74042 12.02 8.45042 12.02 10.5904V19.2504C12.03 19.8704 12.1 20.3604 12.25 20.7504C12.6 21.6604 13.39 22.0004 14.87 22.0004H19.15C21.29 22.0004 22 21.2904 22 19.1504V10.5904C22 8.76042 21.48 7.98042 20 7.79042ZM17.01 10.0904C17.88 10.0904 18.58 10.7904 18.58 11.6604C18.58 12.5304 17.88 13.2304 17.01 13.2304C16.14 13.2304 15.44 12.5304 15.44 11.6604C15.44 10.7904 16.14 10.0904 17.01 10.0904ZM17.01 19.1504C15.83 19.1504 14.87 18.1904 14.87 17.0104C14.87 16.5204 15.04 16.0604 15.32 15.7004C15.71 15.2004 16.32 14.8704 17.01 14.8704C17.55 14.8704 18.04 15.0704 18.41 15.3904C18.86 15.7904 19.15 16.3704 19.15 17.0104C19.15 18.1904 18.19 19.1504 17.01 19.1504Z" fill="#005C73"/>
</svg>
