<svg width="24" height="24" viewBox="0 0 24 24" fill="none" xmlns="http://www.w3.org/2000/svg">
<path d="M7.52635 2.00049C4.61951 2.00049 2.2632 4.3568 2.2632 7.26365C2.2632 10.1705 4.61951 12.5268 7.52635 12.5268C10.4332 12.5268 12.7895 10.1705 12.7895 7.26365C12.7895 4.3568 10.4332 2.00049 7.52635 2.00049ZM17.2478 4.09856C17.0427 4.10453 16.8481 4.19006 16.705 4.33704L14.5998 6.44231C14.4518 6.59037 14.3686 6.79114 14.3686 7.00049C14.3686 7.20983 14.4518 7.41061 14.5998 7.55867L16.705 9.66393C16.7778 9.7397 16.8649 9.80019 16.9613 9.84186C17.0577 9.88353 17.1615 9.90555 17.2665 9.90661C17.3716 9.90768 17.4757 9.88778 17.573 9.84808C17.6702 9.80838 17.7586 9.74967 17.8328 9.6754C17.9071 9.60113 17.9658 9.51278 18.0055 9.41554C18.0452 9.3183 18.0651 9.21411 18.0641 9.10908C18.063 9.00404 18.041 8.90028 17.9993 8.80387C17.9576 8.70745 17.8971 8.62032 17.8214 8.54757L17.0638 7.78996H20.9474C21.052 7.79144 21.1559 7.77211 21.253 7.7331C21.35 7.69409 21.4384 7.63618 21.5129 7.56272C21.5874 7.48926 21.6466 7.40173 21.6869 7.30521C21.7273 7.2087 21.7481 7.10511 21.7481 7.00049C21.7481 6.89586 21.7273 6.79228 21.6869 6.69576C21.6466 6.59924 21.5874 6.51171 21.5129 6.43826C21.4384 6.3648 21.35 6.30688 21.253 6.26787C21.1559 6.22886 21.052 6.20954 20.9474 6.21101H17.0638L17.8214 5.45341C17.9353 5.34248 18.013 5.19976 18.0445 5.04392C18.0759 4.88807 18.0596 4.72636 17.9976 4.57996C17.9356 4.43356 17.8309 4.30927 17.6971 4.22338C17.5633 4.13748 17.4067 4.09398 17.2478 4.09856ZM6.55493 4.10575H8.8627C9.15323 4.10575 9.38902 4.34101 9.38902 4.63207C9.38902 4.92312 9.15323 5.15838 8.8627 5.15838H7.0021L6.83043 6.21101H7.52635C8.68741 6.21101 9.63162 7.15523 9.63162 8.31628C9.63162 9.45733 8.63741 10.4215 7.46057 10.4215C6.24109 10.4215 5.65745 9.9274 5.59482 9.87055C5.37903 9.67634 5.36257 9.34313 5.55678 9.12734C5.74836 8.91418 6.07443 8.89371 6.29075 9.08108C6.31917 9.10319 6.67162 9.36891 7.46057 9.36891C8.05635 9.36891 8.57899 8.8768 8.57899 8.31628C8.57899 7.73575 8.10688 7.26365 7.52635 7.26365H6.21057C6.05635 7.26365 5.90966 7.19548 5.80966 7.07759C5.70966 6.95969 5.66671 6.80412 5.69145 6.65201L6.03581 4.54675C6.07739 4.29254 6.29704 4.10575 6.55493 4.10575ZM12.5264 12.5268C12.09 12.5268 11.7369 12.8805 11.7369 13.3163V19.6321C11.7369 20.9379 12.7995 22.0005 14.1053 22.0005H19.3685C20.6742 22.0005 21.7369 20.9379 21.7369 19.6321V13.3163C21.7369 12.8805 21.3837 12.5268 20.9474 12.5268H12.5264ZM6.72866 14.6238C6.57154 14.6239 6.41801 14.6708 6.2877 14.7586C6.1574 14.8464 6.05625 14.971 5.99719 15.1166C5.93814 15.2622 5.92386 15.4221 5.9562 15.5759C5.98853 15.7296 6.066 15.8702 6.1787 15.9797L6.93631 16.7373H3.05267C2.94806 16.7359 2.84419 16.7552 2.74711 16.7942C2.65003 16.8332 2.56167 16.8911 2.48717 16.9646C2.41267 17.038 2.35351 17.1256 2.31313 17.2221C2.27275 17.3186 2.25195 17.4222 2.25195 17.5268C2.25195 17.6314 2.27275 17.735 2.31313 17.8315C2.35351 17.928 2.41267 18.0156 2.48717 18.089C2.56167 18.1625 2.65003 18.2204 2.74711 18.2594C2.84419 18.2984 2.94806 18.3178 3.05267 18.3163H6.93631L6.1787 19.0739C6.10293 19.1466 6.04244 19.2338 6.00077 19.3302C5.9591 19.4266 5.93709 19.5304 5.93602 19.6354C5.93495 19.7404 5.95485 19.8446 5.99455 19.9419C6.03426 20.0391 6.09296 20.1274 6.16723 20.2017C6.2415 20.276 6.32985 20.3347 6.42709 20.3744C6.52434 20.4141 6.62853 20.434 6.73356 20.4329C6.83859 20.4319 6.94235 20.4098 7.03877 20.3682C7.13518 20.3265 7.22232 20.266 7.29506 20.1903L9.40033 18.085C9.54833 17.9369 9.63147 17.7362 9.63147 17.5268C9.63147 17.3175 9.54833 17.1167 9.40033 16.9686L7.29506 14.8634C7.22148 14.7876 7.13343 14.7273 7.03614 14.6862C6.93885 14.645 6.83429 14.6238 6.72866 14.6238ZM15.6842 14.6321H17.7895C18.2258 14.6321 18.579 14.9858 18.579 15.4215C18.579 15.8573 18.2258 16.211 17.7895 16.211H15.6842C15.2479 16.211 14.8948 15.8573 14.8948 15.4215C14.8948 14.9858 15.2479 14.6321 15.6842 14.6321Z" fill="#005C73"/>
</svg>
