<svg width="24" height="24" viewBox="0 0 24 24" fill="none" xmlns="http://www.w3.org/2000/svg">
<path d="M5.76637 2.00098C4.18819 2.00098 2.90923 3.27994 2.90923 4.85812V12.1308C2.90923 13.709 4.18819 14.988 5.76637 14.988H8.10403V17.5854C8.10403 19.2945 9.51181 20.7023 11.2209 20.7023H18.4936C20.2027 20.7023 21.6105 19.2945 21.6105 17.5854V10.3127C21.6105 8.60356 20.2027 7.19578 18.4936 7.19578H15.8962V4.85812C15.8962 3.27994 14.6173 2.00098 13.0391 2.00098H5.76637ZM15.8962 9.2737H18.4936C19.0796 9.2737 19.5326 9.72671 19.5326 10.3127V17.5854C19.5326 18.1714 19.0796 18.6244 18.4936 18.6244H11.2209C10.635 18.6244 10.182 18.1714 10.182 17.5854V14.988H13.0391C14.6173 14.988 15.8962 13.709 15.8962 12.1308V9.2737ZM3.41349 16.0127C3.13812 16.0168 2.87561 16.13 2.68365 16.3275C2.49169 16.5249 2.38598 16.7905 2.38975 17.0659V18.1049C2.38975 19.814 3.79752 21.2218 5.50663 21.2218V21.3942C5.50663 21.6394 5.65453 21.8608 5.88102 21.9543C5.95583 21.9855 6.03443 22.001 6.11235 22.001C6.27027 22.001 6.42519 21.9398 6.54052 21.8234L7.75298 20.611C7.98986 20.3741 7.98986 19.991 7.75298 19.7546L6.54052 18.5422C6.36753 18.3687 6.10803 18.3167 5.88102 18.4113C5.65453 18.5053 5.50663 18.7262 5.50663 18.9713V19.1438C4.92067 19.1438 4.46767 18.6908 4.46767 18.1049V17.0659C4.46957 16.927 4.44359 16.7891 4.39127 16.6604C4.33896 16.5317 4.26136 16.4148 4.16308 16.3166C4.06479 16.2184 3.94781 16.1409 3.81906 16.0887C3.69031 16.0366 3.5524 16.0107 3.41349 16.0127Z" fill="#167F71"/>
</svg>
