<svg width="24" height="24" viewBox="0 0 24 24" fill="none" xmlns="http://www.w3.org/2000/svg">
<path d="M8.67188 14.3312C8.67188 15.6212 9.66188 16.6612 10.8919 16.6612H13.4019C14.4719 16.6612 15.3419 15.7512 15.3419 14.6312C15.3419 13.4112 14.8119 12.9812 14.0219 12.7012L9.99187 11.3012C9.20187 11.0212 8.67188 10.5912 8.67188 9.37117C8.67188 8.25117 9.54187 7.34117 10.6119 7.34117H13.1219C14.3519 7.34117 15.3419 8.38117 15.3419 9.67117" stroke="#005C73" stroke-width="1.5" stroke-linecap="round" stroke-linejoin="round"/>
<path d="M12 6.00133V18.0013" stroke="#005C73" stroke-width="1.5" stroke-linecap="round" stroke-linejoin="round"/>
<path d="M12 22.0013C17.5228 22.0013 22 17.5242 22 12.0013C22 6.47848 17.5228 2.00133 12 2.00133C6.47715 2.00133 2 6.47848 2 12.0013C2 17.5242 6.47715 22.0013 12 22.0013Z" stroke="#005C73" stroke-width="1.5" stroke-linecap="round" stroke-linejoin="round"/>
<line x1="4.29289" y1="19.2942" x2="19.2929" y2="4.29422" stroke="#005C73" stroke-width="2"/>
</svg>
