<svg width="24" height="24" viewBox="0 0 24 24" fill="none" xmlns="http://www.w3.org/2000/svg">
<path d="M12.1287 3.10817C12.0342 3.10551 11.9403 3.12321 11.8532 3.16006C11.7662 3.19691 11.6882 3.25205 11.6243 3.32174L9.20901 5.95663C9.14856 6.02002 9.10136 6.09484 9.07017 6.17669C9.03898 6.25855 9.02443 6.3458 9.02736 6.43334C9.0303 6.52089 9.05067 6.60697 9.08727 6.68655C9.12388 6.76613 9.17598 6.83762 9.24055 6.89682C9.30511 6.95602 9.38083 7.00175 9.46328 7.03133C9.54572 7.06092 9.63324 7.07377 9.72072 7.06912C9.80819 7.06448 9.89386 7.04243 9.97271 7.00428C10.0516 6.96613 10.122 6.91264 10.1799 6.84693L12.1098 4.74125L14.0396 6.84693C14.0976 6.91264 14.168 6.96613 14.2469 7.00428C14.3257 7.04243 14.4114 7.06448 14.4989 7.06912C14.5863 7.07377 14.6739 7.06092 14.7563 7.03133C14.8387 7.00175 14.9145 6.95602 14.979 6.89682C15.0436 6.83762 15.0957 6.76613 15.1323 6.68655C15.1689 6.60697 15.1893 6.52089 15.1922 6.43334C15.1951 6.3458 15.1806 6.25855 15.1494 6.17669C15.1182 6.09484 15.071 6.02002 15.0106 5.95663L12.5953 3.32174C12.5357 3.25674 12.4638 3.20434 12.3836 3.16766C12.3035 3.13097 12.2168 3.11074 12.1287 3.10817ZM2.6681 7.28008C2.58082 7.27884 2.49415 7.29497 2.41315 7.32752C2.33215 7.36007 2.25842 7.40839 2.19626 7.46968C2.1341 7.53097 2.08473 7.60401 2.05104 7.68454C2.01735 7.76508 2 7.8515 2 7.9388C2 8.0261 2.01735 8.11252 2.05104 8.19306C2.08473 8.27359 2.1341 8.34662 2.19626 8.40792C2.25842 8.46921 2.33215 8.51753 2.41315 8.55008C2.49415 8.58263 2.58082 8.59876 2.6681 8.59752H3.98555C4.11512 8.59752 4.20512 8.68753 4.20512 8.8171V18.4784C4.20512 19.8045 5.29431 20.8937 6.62044 20.8937H17.5991C18.9253 20.8937 20.0145 19.8045 20.0145 18.4784V8.8171C20.0145 8.68753 20.1045 8.59752 20.234 8.59752H21.3319C21.4192 8.59876 21.5058 8.58263 21.5869 8.55008C21.6679 8.51753 21.7416 8.46921 21.8037 8.40792C21.8659 8.34662 21.9153 8.27359 21.949 8.19306C21.9827 8.11252 22 8.0261 22 7.9388C22 7.8515 21.9827 7.76508 21.949 7.68454C21.9153 7.60401 21.8659 7.53097 21.8037 7.46968C21.7416 7.40839 21.6679 7.36007 21.5869 7.32752C21.5058 7.29497 21.4192 7.27884 21.3319 7.28008H20.234C19.3931 7.28008 18.697 7.97615 18.697 8.8171V18.4784C18.697 19.0924 18.2132 19.5762 17.5991 19.5762H6.62044C6.00641 19.5762 5.52257 19.0924 5.52257 18.4784V8.8171C5.52257 7.97615 4.8265 7.28008 3.98555 7.28008H2.6681ZM12.1098 9.47582C9.92678 9.47582 8.15746 11.2451 8.15746 13.4282C8.15746 15.6112 9.92678 17.3805 12.1098 17.3805C14.2928 17.3805 16.0621 15.6112 16.0621 13.4282C16.0621 11.2451 14.2928 9.47582 12.1098 9.47582ZM11.5609 11.6716H12.7685C13.0109 11.6716 13.2077 11.8683 13.2077 12.1107C13.2077 12.3531 13.0109 12.5499 12.7685 12.5499H11.9211L11.8773 12.7694H12.2196C12.8858 12.7694 13.4272 13.3109 13.4272 13.9771C13.4272 14.6657 12.8607 15.1847 12.1098 15.1847C11.4471 15.1847 11.0331 14.9208 10.9879 14.8914C10.7863 14.757 10.7317 14.484 10.8661 14.2824C11 14.0822 11.2697 14.0268 11.4708 14.1572C11.4879 14.1677 11.7211 14.3064 12.1098 14.3064C12.321 14.3064 12.5489 14.2032 12.5489 13.9771C12.5489 13.7953 12.4014 13.6477 12.2196 13.6477H11.3413C11.21 13.6477 11.0851 13.5892 11.0016 13.4873C10.9182 13.3859 10.8848 13.2519 10.9107 13.1228L11.1303 12.0249C11.1711 11.8194 11.3514 11.6716 11.5609 11.6716Z" fill="#FF7000"/>
</svg>
