<svg width="941" height="190" viewBox="0 0 941 190" fill="none" xmlns="http://www.w3.org/2000/svg">
<g clip-path="url(#clip0_496_3871)">
<path d="M146.068 21.2854H49.0766C42.4321 21.2854 36.0598 23.9249 31.3614 28.6233C26.663 33.3217 24.0235 39.694 24.0235 46.3385L24.0235 140.079L79.913 89.7943L50.6328 53.856H78.7904L98.4628 77.8562L122.897 60.0496L122.989 59.9567L123.237 59.7786L129.555 54.8547L128.44 55.7373L129.431 54.9631L41.3269 134.001L31.4713 142.812L24.6661 148.959C25.9403 154.479 29.0473 159.405 33.4804 162.932C37.9136 166.46 43.4112 168.381 49.0766 168.383H146.068C149.358 168.383 152.616 167.735 155.656 166.476C158.695 165.217 161.457 163.372 163.784 161.045C166.11 158.719 167.955 155.957 169.214 152.918C170.473 149.878 171.121 146.62 171.121 143.33V46.3385C171.121 43.0485 170.473 39.7907 169.214 36.7511C167.955 33.7115 166.11 30.9497 163.784 28.6233C161.457 26.2969 158.695 24.4515 155.656 23.1925C152.616 21.9334 149.358 21.2854 146.068 21.2854ZM123.121 141.906L103.464 118.184L88.9634 141.906H78.7904L129.392 80.5194L117.098 100.502L151.557 141.906H123.121ZM73.4097 141.906H39.8559L158.44 36.4907L73.4097 141.906Z" fill="#005C73"/>
<path d="M230.832 57.237V85.2362H268.431V102.996H230.832V132.595H273.231V150.834H208.433V38.9975H273.231V57.237H230.832ZM336.146 150.834L317.906 123.315L301.747 150.834H277.747L306.707 106.356L277.427 62.1969H302.707L320.786 89.5561L337.106 62.1969H361.105L331.986 106.356L361.425 150.834H336.146ZM361.431 106.196C361.431 97.2359 363.191 89.2894 366.711 82.3563C370.338 75.4231 375.191 70.09 381.271 66.3567C387.457 62.6235 394.337 60.7569 401.91 60.7569C408.523 60.7569 414.283 62.0902 419.19 64.7568C424.203 67.4234 428.203 70.7833 431.189 74.8365V62.1969H453.749V150.834H431.189V137.875C428.309 142.035 424.31 145.501 419.19 148.274C414.176 150.941 408.363 152.274 401.75 152.274C394.284 152.274 387.457 150.354 381.271 146.514C375.191 142.675 370.338 137.288 366.711 130.355C363.191 123.315 361.431 115.262 361.431 106.196ZM431.189 106.516C431.189 101.076 430.123 96.4359 427.989 92.596C425.856 88.6494 422.976 85.6629 419.35 83.6363C415.723 81.503 411.83 80.4363 407.67 80.4363C403.51 80.4363 399.67 81.4496 396.15 83.4763C392.63 85.5029 389.75 88.4894 387.511 92.436C385.377 96.2759 384.311 100.862 384.311 106.196C384.311 111.529 385.377 116.222 387.511 120.275C389.75 124.222 392.63 127.262 396.15 129.395C399.777 131.528 403.617 132.595 407.67 132.595C411.83 132.595 415.723 131.582 419.35 129.555C422.976 127.422 425.856 124.435 427.989 120.595C430.123 116.649 431.189 111.955 431.189 106.516ZM463.466 106.516C463.466 97.3425 465.332 89.3428 469.066 82.5163C472.799 75.5831 477.972 70.25 484.585 66.5167C491.198 62.6768 498.772 60.7569 507.305 60.7569C518.291 60.7569 527.357 63.5302 534.504 69.0767C541.757 74.5165 546.61 82.1963 549.063 92.116H524.904C523.624 88.2761 521.438 85.2895 518.344 83.1563C515.358 80.9163 511.625 79.7964 507.145 79.7964C500.745 79.7964 495.678 82.143 491.945 86.8362C488.212 91.4227 486.345 97.9825 486.345 106.516C486.345 114.942 488.212 121.502 491.945 126.195C495.678 130.782 500.745 133.075 507.145 133.075C516.211 133.075 522.131 129.022 524.904 120.915H549.063C546.61 130.515 541.757 138.141 534.504 143.795C527.251 149.448 518.184 152.274 507.305 152.274C498.772 152.274 491.198 150.408 484.585 146.674C477.972 142.835 472.799 137.501 469.066 130.675C465.332 123.742 463.466 115.689 463.466 106.516ZM585.152 80.5963V123.475C585.152 126.462 585.846 128.648 587.232 130.035C588.726 131.315 591.179 131.955 594.592 131.955H604.992V150.834H590.912C572.033 150.834 562.593 141.661 562.593 123.315V80.5963H552.033V62.1969H562.593V40.2775H585.152V62.1969H604.992V80.5963H585.152Z" fill="#005C73"/>
<rect width="295.109" height="171.109" transform="translate(636.335 9.27979)" fill="#005C73"/>
<path d="M754.423 76.2852C754.423 81.5947 753.143 86.5723 750.583 91.2181C748.118 95.8639 744.183 99.609 738.779 102.453C733.469 105.298 726.737 106.72 718.584 106.72H701.944V144.834H682.034V45.566H718.584C726.263 45.566 732.805 46.8934 738.21 49.5482C743.614 52.2029 747.644 55.8532 750.298 60.4989C753.048 65.1447 754.423 70.4068 754.423 76.2852ZM717.73 90.6492C723.229 90.6492 727.306 89.4167 729.961 86.9515C732.616 84.3916 733.943 80.8362 733.943 76.2852C733.943 66.6143 728.539 61.7789 717.73 61.7789H701.944V90.6492H717.73ZM782.781 78.2762C785.341 74.1045 788.659 70.8335 792.736 68.4632C796.908 66.0929 801.648 64.9077 806.958 64.9077V85.8138H801.696C795.438 85.8138 790.697 87.2834 787.474 90.2226C784.345 93.1617 782.781 98.2816 782.781 105.582V144.834H762.87V66.0455H782.781V78.2762ZM849.665 146.114C842.08 146.114 835.254 144.455 829.186 141.137C823.118 137.723 818.33 132.935 814.822 126.773C811.409 120.61 809.702 113.499 809.702 105.44C809.702 97.3809 811.456 90.27 814.964 84.1072C818.567 77.9444 823.45 73.2038 829.613 69.8854C835.775 66.4721 842.649 64.7655 850.234 64.7655C857.819 64.7655 864.693 66.4721 870.856 69.8854C877.019 73.2038 881.854 77.9444 885.362 84.1072C888.965 90.27 890.767 97.3809 890.767 105.44C890.767 113.499 888.918 120.61 885.22 126.773C881.617 132.935 876.687 137.723 870.429 141.137C864.267 144.455 857.345 146.114 849.665 146.114ZM849.665 128.764C853.268 128.764 856.634 127.91 859.763 126.204C862.987 124.402 865.546 121.748 867.443 118.24C869.339 114.731 870.287 110.465 870.287 105.44C870.287 97.9497 868.296 92.2136 864.314 88.2315C860.427 84.1546 855.639 82.1161 849.95 82.1161C844.261 82.1161 839.473 84.1546 835.586 88.2315C831.793 92.2136 829.897 97.9497 829.897 105.44C829.897 112.93 831.746 118.714 835.444 122.791C839.236 126.773 843.977 128.764 849.665 128.764Z" fill="white"/>
</g>
<rect x="5.29981" y="4.92866" width="930.495" height="179.811" rx="38.7204" stroke="#005C73" stroke-width="8.70225"/>
<defs>
<clipPath id="clip0_496_3871">
<rect x="9.65094" y="9.27979" width="921.793" height="171.109" rx="34.3693" fill="white"/>
</clipPath>
</defs>
</svg>
